<svg id="svg" version="1.1" width="400" height="400" viewBox="0 0 400 400" xmlns="http://www.w3.org/2000/svg" xmlns:xlink="http://www.w3.org/1999/xlink" ><g id="svgg"><path id="path0" d="M168.500 28.689 C 167.785 28.778,167.200 29.019,167.200 29.225 C 167.200 29.431,166.936 29.600,166.614 29.600 C 165.839 29.600,165.200 30.853,165.200 32.374 C 165.200 33.048,165.020 33.600,164.800 33.600 C 164.580 33.600,164.400 34.204,164.400 34.942 L 164.400 36.285 161.365 36.514 C 158.120 36.759,157.238 37.309,157.213 39.100 C 157.206 39.595,157.025 40.000,156.810 40.000 C 156.580 40.000,156.376 42.484,156.310 46.100 L 156.200 52.200 152.858 52.317 C 149.930 52.419,149.491 52.531,149.311 53.217 C 149.199 53.648,148.948 54.000,148.753 54.000 C 148.559 54.000,148.400 55.440,148.400 57.200 L 148.400 60.400 132.214 60.400 L 116.029 60.400 115.914 56.500 L 115.800 52.600 111.800 52.400 L 107.800 52.200 107.561 49.700 C 107.321 47.197,106.313 45.600,104.972 45.600 C 104.694 45.600,104.392 45.375,104.300 45.100 C 104.169 44.706,98.111 44.600,75.800 44.600 C 53.489 44.600,47.431 44.706,47.300 45.100 C 47.208 45.375,46.872 45.600,46.553 45.600 C 46.040 45.600,44.144 46.621,43.600 47.191 C 43.490 47.306,42.730 47.741,41.911 48.157 C 40.810 48.717,40.249 49.367,39.757 50.657 C 39.157 52.229,38.962 52.400,37.768 52.400 C 36.477 52.400,36.441 52.446,36.322 54.259 C 36.234 55.601,35.983 56.241,35.420 56.559 C 34.431 57.117,33.231 58.466,33.213 59.037 C 33.206 59.277,32.584 59.806,31.830 60.212 C 30.098 61.144,29.551 62.323,29.299 65.665 L 29.098 68.329 26.349 68.605 C 24.837 68.757,23.600 69.022,23.600 69.194 C 23.600 69.366,23.242 69.600,22.805 69.715 C 21.903 69.950,21.200 71.489,21.200 73.226 C 21.200 73.872,21.020 74.400,20.800 74.400 C 20.580 74.400,20.400 74.850,20.400 75.400 C 20.400 76.386,20.354 76.400,17.089 76.400 C 12.751 76.400,12.400 76.760,12.400 81.205 L 12.400 84.400 9.089 84.400 C 4.751 84.400,4.400 84.760,4.400 89.205 L 4.400 92.400 2.200 92.400 L 0.000 92.400 0.000 211.400 L 0.000 330.400 2.200 330.400 L 4.400 330.400 4.400 333.400 C 4.400 335.133,4.569 336.400,4.800 336.400 C 5.020 336.400,5.206 336.805,5.213 337.300 C 5.238 339.091,6.120 339.641,9.365 339.886 L 12.400 340.115 12.400 341.858 C 12.400 342.816,12.580 343.600,12.800 343.600 C 13.020 343.600,13.206 344.095,13.213 344.700 C 13.246 347.393,14.127 347.731,21.625 347.926 L 28.400 348.102 28.400 350.851 C 28.400 352.363,28.560 353.600,28.757 353.600 C 28.953 353.600,29.223 354.039,29.358 354.576 C 29.556 355.362,29.933 355.598,31.302 355.793 C 34.971 356.315,368.124 355.828,368.300 355.300 C 368.392 355.025,368.694 354.800,368.972 354.800 C 370.313 354.800,371.321 353.203,371.561 350.700 L 371.800 348.200 375.000 348.099 C 380.249 347.934,379.952 348.180,380.085 343.896 L 380.200 340.200 384.000 340.000 L 387.800 339.800 388.000 336.000 L 388.200 332.200 391.600 332.089 C 395.868 331.949,396.000 331.800,396.000 327.124 L 396.000 323.600 398.000 323.600 L 400.000 323.600 400.000 212.000 L 400.000 100.400 398.046 100.400 L 396.092 100.400 395.937 93.630 L 395.782 86.860 394.671 85.831 C 393.791 85.015,392.995 84.749,390.830 84.548 L 388.098 84.294 387.908 81.332 C 387.647 77.266,386.985 76.653,382.635 76.454 C 379.119 76.293,378.644 76.025,378.262 73.989 C 377.923 72.185,376.021 70.409,373.919 69.937 C 373.008 69.733,372.069 69.304,371.831 68.985 C 371.475 68.507,369.380 68.388,359.800 68.303 L 348.200 68.200 347.949 65.800 C 347.653 62.966,347.307 62.000,346.586 62.000 C 346.295 62.000,345.752 61.695,345.379 61.322 C 344.787 60.729,343.401 60.622,334.374 60.472 L 324.047 60.299 323.924 52.782 C 323.780 44.024,324.100 44.638,319.581 44.461 L 316.028 44.321 315.914 40.461 L 315.800 36.600 311.900 36.486 L 308.000 36.371 308.000 33.159 C 308.000 31.393,307.814 29.599,307.586 29.174 C 307.200 28.453,174.141 27.989,168.500 28.689 M278.000 52.971 C 278.000 53.506,278.270 54.213,278.600 54.543 C 278.930 54.873,279.206 55.291,279.213 55.471 C 279.258 56.577,282.001 58.400,283.619 58.400 C 284.048 58.400,284.400 58.651,284.400 58.957 C 284.400 59.792,285.324 60.000,289.033 60.000 L 292.400 60.000 292.400 63.656 C 292.400 66.503,292.538 67.413,293.023 67.767 C 293.365 68.017,293.811 68.958,294.013 69.858 C 294.407 71.612,296.115 73.749,297.408 74.107 C 297.844 74.227,298.695 74.436,299.300 74.570 L 300.400 74.815 300.400 81.408 C 300.400 85.536,300.550 88.000,300.800 88.000 C 301.020 88.000,301.200 88.422,301.200 88.939 C 301.200 89.455,301.575 90.310,302.033 90.839 L 302.867 91.800 322.433 91.918 L 342.000 92.036 342.000 92.989 C 342.000 93.514,342.270 94.213,342.600 94.543 C 342.930 94.873,343.206 95.291,343.213 95.471 C 343.258 96.577,346.001 98.400,347.619 98.400 C 348.048 98.400,348.400 98.649,348.400 98.953 C 348.400 99.743,349.687 99.988,353.855 99.995 L 357.509 100.000 357.771 101.746 C 358.141 104.213,359.747 105.884,362.341 106.500 C 364.299 106.965,364.400 107.053,364.400 108.295 C 364.400 109.013,364.580 109.600,364.800 109.600 C 365.020 109.600,365.200 110.218,365.200 110.974 C 365.200 112.897,365.867 114.440,366.805 114.685 C 367.242 114.800,367.600 115.052,367.600 115.247 C 367.600 115.441,368.275 115.602,369.100 115.605 C 369.925 115.608,371.005 115.719,371.500 115.852 L 372.400 116.093 372.400 212.247 L 372.400 308.400 369.433 308.400 C 366.116 308.400,365.200 308.626,365.200 309.443 C 365.200 309.749,365.020 310.000,364.800 310.000 C 364.567 310.000,364.400 311.333,364.400 313.200 L 364.400 316.400 361.433 316.400 C 358.116 316.400,357.200 316.626,357.200 317.443 C 357.200 317.749,357.020 318.000,356.800 318.000 C 356.567 318.000,356.400 319.334,356.400 321.201 L 356.400 324.401 200.100 324.301 L 43.800 324.200 43.561 321.700 C 43.319 319.175,42.312 317.600,40.939 317.600 C 40.642 317.600,40.400 317.420,40.400 317.200 C 40.400 316.980,39.545 316.797,38.500 316.794 C 36.047 316.786,35.758 316.563,35.400 314.400 C 35.236 313.410,34.985 312.510,34.842 312.400 C 34.699 312.290,34.268 311.707,33.884 311.104 C 33.386 310.320,32.731 309.934,31.593 309.753 C 30.717 309.612,30.000 309.341,30.000 309.149 C 30.000 308.957,29.550 308.800,29.000 308.800 C 28.003 308.800,28.000 308.789,27.982 304.900 C 27.946 296.815,27.080 293.600,24.939 293.600 C 24.642 293.600,24.400 293.429,24.400 293.221 C 24.400 293.012,23.455 292.787,22.300 292.721 L 20.200 292.600 20.099 211.551 L 19.998 130.503 21.518 130.260 C 23.842 129.888,26.400 127.093,26.400 124.925 C 26.400 124.575,26.715 124.058,27.100 123.777 C 27.716 123.327,27.815 122.353,27.924 115.633 L 28.048 108.000 31.610 108.000 C 35.906 108.000,36.000 107.899,36.000 103.266 L 36.000 100.079 42.900 99.940 C 51.384 99.768,51.534 99.685,51.890 94.980 L 52.113 92.028 55.957 91.914 L 59.800 91.800 59.908 83.900 L 60.017 76.000 72.208 76.000 L 84.400 76.000 84.400 78.200 C 84.400 79.410,84.580 80.400,84.800 80.400 C 85.020 80.400,85.201 80.895,85.202 81.500 C 85.204 82.105,85.474 83.116,85.802 83.746 C 86.131 84.376,86.400 85.141,86.400 85.446 C 86.400 85.751,86.558 86.000,86.751 86.000 C 86.945 86.000,87.327 86.540,87.600 87.200 C 87.873 87.860,88.305 88.400,88.560 88.400 C 88.814 88.400,89.330 88.760,89.707 89.200 C 90.084 89.640,90.771 90.000,91.234 90.000 C 91.740 90.000,92.159 90.320,92.285 90.804 C 92.610 92.046,91.893 92.026,133.000 91.910 L 171.800 91.800 171.914 87.930 L 172.028 84.061 174.698 83.775 C 176.167 83.617,177.597 83.260,177.877 82.980 C 178.157 82.700,178.597 82.401,178.854 82.315 C 179.528 82.091,179.937 78.566,179.971 72.700 L 180.000 67.600 181.800 67.600 C 182.790 67.600,183.600 67.442,183.600 67.250 C 183.600 67.058,184.144 66.791,184.809 66.658 C 185.475 66.525,186.137 66.098,186.280 65.708 C 186.424 65.319,186.719 64.882,186.935 64.737 C 187.151 64.592,187.410 63.485,187.510 62.277 L 187.692 60.081 190.756 59.940 C 194.984 59.747,195.649 59.112,195.912 55.015 L 196.105 52.000 237.053 52.000 L 278.000 52.000 278.000 52.971 M234.247 92.724 C 233.173 92.792,232.036 93.107,231.719 93.424 C 231.402 93.741,230.903 94.000,230.611 94.000 C 229.900 94.000,229.200 96.110,229.200 98.252 C 229.200 100.515,230.389 100.369,211.033 100.494 C 198.371 100.576,194.629 100.713,194.500 101.100 C 194.408 101.375,193.971 101.600,193.528 101.600 C 191.332 101.600,189.866 103.351,189.387 106.548 L 189.109 108.400 185.255 108.406 C 181.228 108.413,180.708 108.548,180.283 109.700 C 180.141 110.085,179.658 110.400,179.209 110.400 C 178.760 110.400,178.084 110.760,177.707 111.200 C 177.330 111.640,176.814 112.000,176.560 112.000 C 176.305 112.000,175.873 112.540,175.600 113.200 C 175.327 113.860,174.957 114.400,174.779 114.400 C 174.601 114.400,174.398 114.805,174.328 115.300 C 174.209 116.137,173.941 116.218,170.480 116.462 C 166.435 116.746,165.200 117.448,165.200 119.461 C 165.200 119.978,165.020 120.400,164.800 120.400 C 164.580 120.400,164.400 121.300,164.400 122.400 L 164.400 124.400 161.416 124.400 C 159.224 124.400,158.295 124.563,157.916 125.014 C 157.632 125.352,157.175 125.879,156.900 126.185 C 156.602 126.518,156.400 127.861,156.400 129.513 L 156.400 132.284 153.565 132.522 C 150.467 132.781,149.200 133.634,149.200 135.461 C 149.200 135.978,149.020 136.400,148.800 136.400 C 148.574 136.400,148.400 137.531,148.400 138.992 C 148.400 141.494,148.362 141.593,147.300 141.830 C 146.695 141.964,145.844 142.173,145.408 142.293 C 144.115 142.651,142.407 144.788,142.013 146.542 C 141.811 147.442,141.365 148.383,141.023 148.633 C 140.534 148.990,140.400 149.916,140.400 152.944 L 140.400 156.800 139.000 156.800 C 138.230 156.800,137.600 156.980,137.600 157.200 C 137.600 157.420,137.321 157.600,136.980 157.600 C 134.785 157.600,133.200 160.023,133.200 163.377 C 133.200 163.940,133.022 164.400,132.806 164.400 C 132.557 164.400,132.372 169.149,132.306 177.271 L 132.200 190.143 131.024 190.457 C 130.377 190.630,129.693 191.048,129.504 191.386 C 129.315 191.724,128.911 192.000,128.607 192.000 C 128.303 192.000,127.940 192.359,127.801 192.798 C 127.662 193.236,127.334 193.821,127.073 194.098 C 126.396 194.815,125.196 198.400,125.198 199.700 C 125.199 200.305,125.020 200.800,124.800 200.800 C 124.552 200.800,124.400 203.000,124.400 206.600 C 124.400 210.200,124.552 212.400,124.800 212.400 C 125.020 212.400,125.200 213.183,125.200 214.140 C 125.200 216.289,125.899 218.400,126.611 218.400 C 126.903 218.400,127.402 218.659,127.719 218.976 C 128.036 219.293,129.173 219.608,130.247 219.676 L 132.200 219.800 132.305 234.722 C 132.383 245.866,132.535 249.794,132.905 250.236 C 134.342 251.954,134.461 252.000,137.429 252.000 L 140.400 252.000 140.400 258.829 C 140.400 263.727,140.541 265.815,140.900 266.215 C 141.175 266.521,141.632 267.048,141.916 267.386 C 142.295 267.837,143.224 268.000,145.416 268.000 L 148.400 268.000 148.400 271.792 C 148.400 276.181,148.117 275.927,153.200 276.099 L 156.200 276.200 156.314 280.100 C 156.405 283.181,156.550 284.000,157.007 284.000 C 157.325 284.000,157.695 284.495,157.830 285.100 C 158.313 287.274,158.457 287.576,159.568 288.766 C 160.235 289.479,161.363 290.122,162.330 290.340 C 163.229 290.542,164.255 290.998,164.611 291.353 C 165.109 291.852,166.073 292.000,168.829 292.000 L 172.400 292.000 172.400 295.195 C 172.400 299.589,172.781 300.000,176.856 300.000 C 180.960 300.000,181.200 300.120,181.200 302.183 C 181.200 304.294,181.905 306.400,182.611 306.400 C 182.903 306.400,183.431 306.689,183.784 307.041 C 184.312 307.569,185.751 307.716,191.913 307.870 C 199.066 308.050,201.183 308.390,201.213 309.368 C 201.231 309.935,202.435 311.285,203.420 311.840 C 203.849 312.083,204.257 312.758,204.327 313.340 C 204.396 313.923,204.621 314.400,204.827 314.400 C 205.032 314.400,205.200 314.662,205.200 314.982 C 205.200 315.996,207.080 316.046,240.229 315.922 C 270.326 315.809,272.707 315.750,273.349 315.109 C 273.729 314.729,274.311 314.266,274.642 314.081 C 275.015 313.872,275.405 312.660,275.667 310.896 L 276.090 308.048 283.612 307.924 C 292.373 307.780,291.762 308.096,291.938 303.607 L 292.077 300.079 298.905 299.940 C 303.910 299.837,305.778 299.666,305.900 299.300 C 305.992 299.025,306.302 298.800,306.591 298.800 C 307.317 298.800,307.621 297.840,307.887 294.700 L 308.116 292.000 310.758 291.995 C 315.470 291.985,316.000 291.458,316.000 286.781 L 316.000 284.000 318.700 283.995 C 323.466 283.985,324.000 283.465,324.000 278.839 L 324.000 276.115 326.780 275.856 C 328.996 275.651,329.786 275.389,330.671 274.569 L 331.782 273.540 331.936 266.808 L 332.091 260.076 335.612 259.938 C 340.095 259.762,339.767 260.394,340.000 251.468 L 340.200 243.800 342.300 243.679 C 343.455 243.613,344.400 243.388,344.400 243.179 C 344.400 242.971,344.642 242.800,344.939 242.800 C 347.844 242.800,347.961 241.350,347.982 205.360 C 348.003 169.407,348.515 172.400,342.350 172.400 L 340.000 172.400 340.000 164.933 C 340.000 158.184,339.495 152.528,338.846 152.000 C 338.711 151.890,338.404 151.440,338.165 151.000 C 337.910 150.532,337.038 150.044,336.065 149.823 C 335.149 149.616,334.400 149.301,334.400 149.123 C 334.400 148.945,333.860 148.800,333.200 148.800 L 332.000 148.800 332.000 145.374 C 332.000 140.476,331.933 140.400,327.600 140.400 L 324.029 140.400 323.914 136.500 L 323.800 132.600 322.701 132.474 C 321.925 132.384,321.530 132.061,321.358 131.374 C 321.223 130.838,320.982 130.400,320.821 130.400 C 320.660 130.400,320.319 129.940,320.063 129.379 C 319.807 128.817,319.058 128.170,318.399 127.940 C 317.740 127.710,317.200 127.359,317.200 127.161 C 317.200 126.962,316.942 126.800,316.627 126.800 C 316.298 126.800,315.999 126.330,315.927 125.700 L 315.800 124.600 311.900 124.486 L 308.000 124.371 308.000 121.159 C 308.000 116.504,307.905 116.400,303.639 116.400 L 300.105 116.400 299.912 113.385 C 299.611 108.701,299.482 108.630,290.911 108.474 L 284.000 108.348 284.000 105.834 C 284.000 103.849,283.540 101.345,283.061 100.721 C 283.027 100.677,275.890 100.542,267.200 100.421 L 251.400 100.200 251.275 98.900 C 251.206 98.185,250.981 97.600,250.775 97.600 C 250.569 97.600,250.400 97.324,250.400 96.986 C 250.400 95.206,248.095 93.600,245.540 93.600 C 244.913 93.600,244.400 93.432,244.400 93.226 C 244.400 92.838,237.678 92.506,234.247 92.724 M50.400 101.200 C 50.400 101.420,50.023 101.600,49.562 101.600 C 47.331 101.600,45.869 103.333,45.387 106.548 L 45.109 108.400 41.443 108.400 C 36.481 108.400,36.458 108.429,36.312 115.048 C 36.212 119.588,36.119 120.160,35.420 120.557 C 34.415 121.127,33.230 122.470,33.213 123.057 C 33.206 123.309,32.885 123.637,32.500 123.786 C 31.833 124.044,31.833 124.082,32.500 124.573 C 32.885 124.856,33.206 125.248,33.213 125.444 C 33.232 125.946,34.493 127.317,35.420 127.843 C 36.150 128.258,36.207 128.838,36.308 136.969 C 36.384 143.115,36.559 145.822,36.908 146.239 C 38.488 148.129,37.357 148.031,56.150 147.912 L 73.819 147.800 74.810 146.877 L 75.800 145.954 75.800 127.611 C 75.800 117.522,75.650 109.117,75.467 108.933 C 75.284 108.750,73.408 108.537,71.298 108.459 C 67.096 108.305,66.656 108.089,66.262 105.989 C 65.737 103.192,62.969 101.630,58.500 101.610 C 57.345 101.604,56.400 101.420,56.400 101.200 C 56.400 100.969,55.133 100.800,53.400 100.800 C 51.667 100.800,50.400 100.969,50.400 101.200 M245.230 125.700 C 245.281 128.545,246.065 130.133,247.634 130.570 C 248.385 130.780,249.124 131.135,249.276 131.359 C 249.445 131.610,252.998 131.819,258.476 131.901 C 269.701 132.068,269.200 131.963,269.200 134.148 C 269.200 136.290,269.900 138.400,270.611 138.400 C 270.903 138.400,271.420 138.677,271.758 139.015 C 272.232 139.489,273.754 139.687,278.387 139.878 L 284.400 140.124 284.400 143.262 C 284.400 145.087,284.567 146.400,284.800 146.400 C 285.020 146.400,285.200 146.651,285.200 146.957 C 285.200 147.774,286.116 148.000,289.433 148.000 L 292.400 148.000 292.400 150.817 C 292.400 155.013,293.357 156.000,297.429 156.000 L 300.400 156.000 300.400 159.195 C 300.400 163.640,300.751 164.000,305.089 164.000 L 308.400 164.000 308.400 171.000 C 308.400 175.400,308.549 178.000,308.800 178.000 C 309.020 178.000,309.200 178.357,309.200 178.792 C 309.200 179.727,309.967 179.955,313.600 180.098 L 316.200 180.200 316.303 204.500 L 316.406 228.800 315.003 228.800 C 314.231 228.800,313.600 228.980,313.600 229.200 C 313.600 229.420,313.321 229.600,312.980 229.600 C 310.785 229.600,309.200 232.023,309.200 235.377 C 309.200 235.940,309.020 236.400,308.800 236.400 C 308.559 236.400,308.400 238.067,308.400 240.600 L 308.400 244.800 306.600 244.800 C 305.610 244.800,304.800 244.954,304.800 245.142 C 304.800 245.330,304.230 245.648,303.534 245.847 C 302.073 246.266,301.280 247.936,301.230 250.700 C 301.214 251.635,301.027 252.400,300.814 252.400 C 300.601 252.400,300.378 254.144,300.314 256.300 L 300.200 260.200 297.200 260.301 C 292.175 260.471,292.448 260.236,292.315 264.504 L 292.200 268.200 286.835 268.482 C 283.884 268.637,281.364 268.918,281.235 269.107 C 281.106 269.295,280.385 269.620,279.634 269.830 C 278.073 270.265,277.282 271.853,277.230 274.657 L 277.200 276.314 272.532 276.462 C 269.289 276.565,267.813 276.761,267.698 277.105 C 267.608 277.377,267.102 277.600,266.575 277.600 C 263.704 277.600,261.600 279.586,261.600 282.296 C 261.600 284.538,263.240 284.400,236.557 284.400 L 212.000 284.400 212.000 281.860 C 212.000 276.462,211.890 276.400,202.390 276.400 L 196.080 276.400 195.940 272.833 C 195.769 268.478,195.921 268.631,191.617 268.462 L 188.100 268.324 187.909 265.347 C 187.652 261.338,186.963 260.664,182.913 260.460 L 180.000 260.313 180.000 257.575 C 180.000 252.934,179.468 252.415,174.700 252.405 L 172.000 252.400 172.000 248.933 C 172.000 245.543,171.335 240.398,170.846 240.000 C 170.711 239.890,170.404 239.440,170.165 239.000 C 169.910 238.532,169.038 238.044,168.065 237.823 C 167.149 237.616,166.400 237.301,166.400 237.123 C 166.400 236.945,165.860 236.800,165.200 236.800 L 164.000 236.800 163.998 229.700 C 163.996 223.041,163.599 219.600,162.832 219.600 C 162.651 219.600,162.393 218.916,162.259 218.081 C 161.944 216.112,159.858 214.207,157.623 213.850 L 156.000 213.591 156.000 204.853 L 156.000 196.116 158.895 195.873 C 160.487 195.740,161.852 195.444,161.928 195.215 C 162.004 194.987,162.302 194.800,162.591 194.800 C 163.607 194.800,163.772 193.295,163.914 182.739 L 164.057 172.077 167.596 171.939 C 171.939 171.768,171.770 171.947,171.939 167.367 C 172.074 163.694,172.101 163.600,173.039 163.600 C 173.567 163.600,174.000 163.443,174.000 163.251 C 174.000 163.059,174.717 162.788,175.593 162.647 C 176.731 162.466,177.386 162.080,177.884 161.296 C 178.268 160.693,178.691 160.110,178.824 160.000 C 179.171 159.713,180.000 155.307,180.000 153.747 C 180.000 152.821,180.248 152.296,180.830 151.984 C 181.911 151.405,183.293 150.025,183.810 149.007 C 184.148 148.342,184.817 148.139,187.610 147.853 C 189.475 147.662,191.090 147.374,191.200 147.213 C 191.310 147.052,191.927 146.747,192.571 146.536 C 193.216 146.325,193.936 145.803,194.171 145.376 C 194.407 144.949,194.740 144.496,194.911 144.370 C 195.081 144.243,195.329 143.225,195.462 142.107 L 195.703 140.074 199.419 139.937 C 203.941 139.770,203.769 139.936,203.939 135.595 L 204.078 132.055 215.349 131.928 C 226.221 131.805,226.653 131.770,227.538 130.944 C 228.042 130.474,228.981 129.984,229.624 129.855 C 231.041 129.572,233.507 127.130,233.857 125.664 C 233.996 125.079,234.186 124.465,234.279 124.300 C 234.371 124.135,236.867 124.000,239.824 124.000 L 245.200 124.000 245.230 125.700 " stroke="none" fill="#000000" fill-rule="evenodd"></path><path id="path1" d="M168.500 28.689 C 167.785 28.778,167.200 29.019,167.200 29.225 C 167.200 29.431,166.936 29.600,166.614 29.600 C 165.839 29.600,165.200 30.853,165.200 32.374 C 165.200 33.048,165.020 33.600,164.800 33.600 C 164.580 33.600,164.400 34.204,164.400 34.942 L 164.400 36.285 161.365 36.514 C 158.120 36.759,157.238 37.309,157.213 39.100 C 157.206 39.595,157.025 40.000,156.810 40.000 C 156.580 40.000,156.376 42.484,156.310 46.100 L 156.200 52.200 152.858 52.317 C 149.930 52.419,149.491 52.531,149.311 53.217 C 149.199 53.648,148.948 54.000,148.753 54.000 C 148.559 54.000,148.400 55.440,148.400 57.200 L 148.400 60.400 132.214 60.400 L 116.029 60.400 115.914 56.500 L 115.800 52.600 111.800 52.400 L 107.800 52.200 107.561 49.700 C 107.321 47.197,106.313 45.600,104.972 45.600 C 104.694 45.600,104.392 45.375,104.300 45.100 C 104.169 44.706,98.111 44.600,75.800 44.600 C 53.489 44.600,47.431 44.706,47.300 45.100 C 47.208 45.375,46.872 45.600,46.553 45.600 C 46.040 45.600,44.144 46.621,43.600 47.191 C 43.490 47.306,42.730 47.741,41.911 48.157 C 40.810 48.717,40.249 49.367,39.757 50.657 C 39.157 52.229,38.962 52.400,37.768 52.400 C 36.477 52.400,36.441 52.446,36.322 54.259 C 36.234 55.601,35.983 56.241,35.420 56.559 C 34.431 57.117,33.231 58.466,33.213 59.037 C 33.206 59.277,32.584 59.806,31.830 60.212 C 30.098 61.144,29.551 62.323,29.299 65.665 L 29.098 68.329 26.349 68.605 C 24.837 68.757,23.600 69.022,23.600 69.194 C 23.600 69.366,23.242 69.600,22.805 69.715 C 21.903 69.950,21.200 71.489,21.200 73.226 C 21.200 73.872,21.020 74.400,20.800 74.400 C 20.580 74.400,20.400 74.850,20.400 75.400 C 20.400 76.386,20.354 76.400,17.089 76.400 C 12.751 76.400,12.400 76.760,12.400 81.205 L 12.400 84.400 9.089 84.400 C 4.751 84.400,4.400 84.760,4.400 89.205 L 4.400 92.400 2.200 92.400 L 0.000 92.400 0.000 211.400 L 0.000 330.400 2.200 330.400 L 4.400 330.400 4.400 333.400 C 4.400 335.133,4.569 336.400,4.800 336.400 C 5.020 336.400,5.206 336.805,5.213 337.300 C 5.238 339.091,6.120 339.641,9.365 339.886 L 12.400 340.115 12.400 341.858 C 12.400 342.816,12.580 343.600,12.800 343.600 C 13.020 343.600,13.206 344.095,13.213 344.700 C 13.246 347.393,14.127 347.731,21.625 347.926 L 28.400 348.102 28.400 350.851 C 28.400 352.363,28.560 353.600,28.757 353.600 C 28.953 353.600,29.223 354.039,29.358 354.576 C 29.556 355.362,29.933 355.598,31.302 355.793 C 34.971 356.315,368.124 355.828,368.300 355.300 C 368.392 355.025,368.694 354.800,368.972 354.800 C 370.313 354.800,371.321 353.203,371.561 350.700 L 371.800 348.200 375.000 348.099 C 380.249 347.934,379.952 348.180,380.085 343.896 L 380.200 340.200 384.000 340.000 L 387.800 339.800 388.000 336.000 L 388.200 332.200 391.600 332.089 C 395.868 331.949,396.000 331.800,396.000 327.124 L 396.000 323.600 398.000 323.600 L 400.000 323.600 400.000 212.000 L 400.000 100.400 398.046 100.400 L 396.092 100.400 395.937 93.630 L 395.782 86.860 394.671 85.831 C 393.791 85.015,392.995 84.749,390.830 84.548 L 388.098 84.294 387.908 81.332 C 387.647 77.266,386.985 76.653,382.635 76.454 C 379.119 76.293,378.644 76.025,378.262 73.989 C 377.923 72.185,376.021 70.409,373.919 69.937 C 373.008 69.733,372.069 69.304,371.831 68.985 C 371.475 68.507,369.380 68.388,359.800 68.303 L 348.200 68.200 347.949 65.800 C 347.653 62.966,347.307 62.000,346.586 62.000 C 346.295 62.000,345.752 61.695,345.379 61.322 C 344.787 60.729,343.401 60.622,334.374 60.472 L 324.047 60.299 323.924 52.782 C 323.780 44.024,324.100 44.638,319.581 44.461 L 316.028 44.321 315.914 40.461 L 315.800 36.600 311.900 36.486 L 308.000 36.371 308.000 33.159 C 308.000 31.393,307.814 29.599,307.586 29.174 C 307.200 28.453,174.141 27.989,168.500 28.689 M278.000 52.971 C 278.000 53.506,278.270 54.213,278.600 54.543 C 278.930 54.873,279.206 55.291,279.213 55.471 C 279.258 56.577,282.001 58.400,283.619 58.400 C 284.048 58.400,284.400 58.651,284.400 58.957 C 284.400 59.792,285.324 60.000,289.033 60.000 L 292.400 60.000 292.400 63.656 C 292.400 66.503,292.538 67.413,293.023 67.767 C 293.365 68.017,293.811 68.958,294.013 69.858 C 294.407 71.612,296.115 73.749,297.408 74.107 C 297.844 74.227,298.695 74.436,299.300 74.570 L 300.400 74.815 300.400 81.408 C 300.400 85.536,300.550 88.000,300.800 88.000 C 301.020 88.000,301.200 88.422,301.200 88.939 C 301.200 89.455,301.575 90.310,302.033 90.839 L 302.867 91.800 322.433 91.918 L 342.000 92.036 342.000 92.989 C 342.000 93.514,342.270 94.213,342.600 94.543 C 342.930 94.873,343.206 95.291,343.213 95.471 C 343.258 96.577,346.001 98.400,347.619 98.400 C 348.048 98.400,348.400 98.649,348.400 98.953 C 348.400 99.743,349.687 99.988,353.855 99.995 L 357.509 100.000 357.771 101.746 C 358.141 104.213,359.747 105.884,362.341 106.500 C 364.299 106.965,364.400 107.053,364.400 108.295 C 364.400 109.013,364.580 109.600,364.800 109.600 C 365.020 109.600,365.200 110.218,365.200 110.974 C 365.200 112.897,365.867 114.440,366.805 114.685 C 367.242 114.800,367.600 115.052,367.600 115.247 C 367.600 115.441,368.275 115.602,369.100 115.605 C 369.925 115.608,371.005 115.719,371.500 115.852 L 372.400 116.093 372.400 212.247 L 372.400 308.400 369.433 308.400 C 366.116 308.400,365.200 308.626,365.200 309.443 C 365.200 309.749,365.020 310.000,364.800 310.000 C 364.567 310.000,364.400 311.333,364.400 313.200 L 364.400 316.400 361.433 316.400 C 358.116 316.400,357.200 316.626,357.200 317.443 C 357.200 317.749,357.020 318.000,356.800 318.000 C 356.567 318.000,356.400 319.334,356.400 321.201 L 356.400 324.401 200.100 324.301 L 43.800 324.200 43.561 321.700 C 43.319 319.175,42.312 317.600,40.939 317.600 C 40.642 317.600,40.400 317.420,40.400 317.200 C 40.400 316.980,39.545 316.797,38.500 316.794 C 36.047 316.786,35.758 316.563,35.400 314.400 C 35.236 313.410,34.985 312.510,34.842 312.400 C 34.699 312.290,34.268 311.707,33.884 311.104 C 33.386 310.320,32.731 309.934,31.593 309.753 C 30.717 309.612,30.000 309.341,30.000 309.149 C 30.000 308.957,29.550 308.800,29.000 308.800 C 28.003 308.800,28.000 308.789,27.982 304.900 C 27.946 296.815,27.080 293.600,24.939 293.600 C 24.642 293.600,24.400 293.429,24.400 293.221 C 24.400 293.012,23.455 292.787,22.300 292.721 L 20.200 292.600 20.099 211.551 L 19.998 130.503 21.518 130.260 C 23.842 129.888,26.400 127.093,26.400 124.925 C 26.400 124.575,26.715 124.058,27.100 123.777 C 27.716 123.327,27.815 122.353,27.924 115.633 L 28.048 108.000 31.610 108.000 C 35.906 108.000,36.000 107.899,36.000 103.266 L 36.000 100.079 42.900 99.940 C 51.384 99.768,51.534 99.685,51.890 94.980 L 52.113 92.028 55.957 91.914 L 59.800 91.800 59.908 83.900 L 60.017 76.000 72.208 76.000 L 84.400 76.000 84.400 78.200 C 84.400 79.410,84.580 80.400,84.800 80.400 C 85.020 80.400,85.201 80.895,85.202 81.500 C 85.204 82.105,85.474 83.116,85.802 83.746 C 86.131 84.376,86.400 85.141,86.400 85.446 C 86.400 85.751,86.558 86.000,86.751 86.000 C 86.945 86.000,87.327 86.540,87.600 87.200 C 87.873 87.860,88.305 88.400,88.560 88.400 C 88.814 88.400,89.330 88.760,89.707 89.200 C 90.084 89.640,90.771 90.000,91.234 90.000 C 91.740 90.000,92.159 90.320,92.285 90.804 C 92.610 92.046,91.893 92.026,133.000 91.910 L 171.800 91.800 171.914 87.930 L 172.028 84.061 174.698 83.775 C 176.167 83.617,177.597 83.260,177.877 82.980 C 178.157 82.700,178.597 82.401,178.854 82.315 C 179.528 82.091,179.937 78.566,179.971 72.700 L 180.000 67.600 181.800 67.600 C 182.790 67.600,183.600 67.442,183.600 67.250 C 183.600 67.058,184.144 66.791,184.809 66.658 C 185.475 66.525,186.137 66.098,186.280 65.708 C 186.424 65.319,186.719 64.882,186.935 64.737 C 187.151 64.592,187.410 63.485,187.510 62.277 L 187.692 60.081 190.756 59.940 C 194.984 59.747,195.649 59.112,195.912 55.015 L 196.105 52.000 237.053 52.000 L 278.000 52.000 278.000 52.971 M234.247 92.724 C 233.173 92.792,232.036 93.107,231.719 93.424 C 231.402 93.741,230.903 94.000,230.611 94.000 C 229.900 94.000,229.200 96.110,229.200 98.252 C 229.200 100.515,230.389 100.369,211.033 100.494 C 198.371 100.576,194.629 100.713,194.500 101.100 C 194.408 101.375,193.971 101.600,193.528 101.600 C 191.332 101.600,189.866 103.351,189.387 106.548 L 189.109 108.400 185.255 108.406 C 181.228 108.413,180.708 108.548,180.283 109.700 C 180.141 110.085,179.658 110.400,179.209 110.400 C 178.760 110.400,178.084 110.760,177.707 111.200 C 177.330 111.640,176.814 112.000,176.560 112.000 C 176.305 112.000,175.873 112.540,175.600 113.200 C 175.327 113.860,174.957 114.400,174.779 114.400 C 174.601 114.400,174.398 114.805,174.328 115.300 C 174.209 116.137,173.941 116.218,170.480 116.462 C 166.435 116.746,165.200 117.448,165.200 119.461 C 165.200 119.978,165.020 120.400,164.800 120.400 C 164.580 120.400,164.400 121.300,164.400 122.400 L 164.400 124.400 161.416 124.400 C 159.224 124.400,158.295 124.563,157.916 125.014 C 157.632 125.352,157.175 125.879,156.900 126.185 C 156.602 126.518,156.400 127.861,156.400 129.513 L 156.400 132.284 153.565 132.522 C 150.467 132.781,149.200 133.634,149.200 135.461 C 149.200 135.978,149.020 136.400,148.800 136.400 C 148.574 136.400,148.400 137.531,148.400 138.992 C 148.400 141.494,148.362 141.593,147.300 141.830 C 146.695 141.964,145.844 142.173,145.408 142.293 C 144.115 142.651,142.407 144.788,142.013 146.542 C 141.811 147.442,141.365 148.383,141.023 148.633 C 140.534 148.990,140.400 149.916,140.400 152.944 L 140.400 156.800 139.000 156.800 C 138.230 156.800,137.600 156.980,137.600 157.200 C 137.600 157.420,137.321 157.600,136.980 157.600 C 134.785 157.600,133.200 160.023,133.200 163.377 C 133.200 163.940,133.022 164.400,132.806 164.400 C 132.557 164.400,132.372 169.149,132.306 177.271 L 132.200 190.143 131.024 190.457 C 130.377 190.630,129.693 191.048,129.504 191.386 C 129.315 191.724,128.911 192.000,128.607 192.000 C 128.303 192.000,127.940 192.359,127.801 192.798 C 127.662 193.236,127.334 193.821,127.073 194.098 C 126.396 194.815,125.196 198.400,125.198 199.700 C 125.199 200.305,125.020 200.800,124.800 200.800 C 124.552 200.800,124.400 203.000,124.400 206.600 C 124.400 210.200,124.552 212.400,124.800 212.400 C 125.020 212.400,125.200 213.183,125.200 214.140 C 125.200 216.289,125.899 218.400,126.611 218.400 C 126.903 218.400,127.402 218.659,127.719 218.976 C 128.036 219.293,129.173 219.608,130.247 219.676 L 132.200 219.800 132.305 234.722 C 132.383 245.866,132.535 249.794,132.905 250.236 C 134.342 251.954,134.461 252.000,137.429 252.000 L 140.400 252.000 140.400 258.829 C 140.400 263.727,140.541 265.815,140.900 266.215 C 141.175 266.521,141.632 267.048,141.916 267.386 C 142.295 267.837,143.224 268.000,145.416 268.000 L 148.400 268.000 148.400 271.792 C 148.400 276.181,148.117 275.927,153.200 276.099 L 156.200 276.200 156.314 280.100 C 156.405 283.181,156.550 284.000,157.007 284.000 C 157.325 284.000,157.695 284.495,157.830 285.100 C 158.313 287.274,158.457 287.576,159.568 288.766 C 160.235 289.479,161.363 290.122,162.330 290.340 C 163.229 290.542,164.255 290.998,164.611 291.353 C 165.109 291.852,166.073 292.000,168.829 292.000 L 172.400 292.000 172.400 295.195 C 172.400 299.589,172.781 300.000,176.856 300.000 C 180.960 300.000,181.200 300.120,181.200 302.183 C 181.200 304.294,181.905 306.400,182.611 306.400 C 182.903 306.400,183.431 306.689,183.784 307.041 C 184.312 307.569,185.751 307.716,191.913 307.870 C 199.066 308.050,201.183 308.390,201.213 309.368 C 201.231 309.935,202.435 311.285,203.420 311.840 C 203.849 312.083,204.257 312.758,204.327 313.340 C 204.396 313.923,204.621 314.400,204.827 314.400 C 205.032 314.400,205.200 314.662,205.200 314.982 C 205.200 315.996,207.080 316.046,240.229 315.922 C 270.326 315.809,272.707 315.750,273.349 315.109 C 273.729 314.729,274.311 314.266,274.642 314.081 C 275.015 313.872,275.405 312.660,275.667 310.896 L 276.090 308.048 283.612 307.924 C 292.373 307.780,291.762 308.096,291.938 303.607 L 292.077 300.079 298.905 299.940 C 303.910 299.837,305.778 299.666,305.900 299.300 C 305.992 299.025,306.302 298.800,306.591 298.800 C 307.317 298.800,307.621 297.840,307.887 294.700 L 308.116 292.000 310.758 291.995 C 315.470 291.985,316.000 291.458,316.000 286.781 L 316.000 284.000 318.700 283.995 C 323.466 283.985,324.000 283.465,324.000 278.839 L 324.000 276.115 326.780 275.856 C 328.996 275.651,329.786 275.389,330.671 274.569 L 331.782 273.540 331.936 266.808 L 332.091 260.076 335.612 259.938 C 340.095 259.762,339.767 260.394,340.000 251.468 L 340.200 243.800 342.300 243.679 C 343.455 243.613,344.400 243.388,344.400 243.179 C 344.400 242.971,344.642 242.800,344.939 242.800 C 347.844 242.800,347.961 241.350,347.982 205.360 C 348.003 169.407,348.515 172.400,342.350 172.400 L 340.000 172.400 340.000 164.933 C 340.000 158.184,339.495 152.528,338.846 152.000 C 338.711 151.890,338.404 151.440,338.165 151.000 C 337.910 150.532,337.038 150.044,336.065 149.823 C 335.149 149.616,334.400 149.301,334.400 149.123 C 334.400 148.945,333.860 148.800,333.200 148.800 L 332.000 148.800 332.000 145.374 C 332.000 140.476,331.933 140.400,327.600 140.400 L 324.029 140.400 323.914 136.500 L 323.800 132.600 322.701 132.474 C 321.925 132.384,321.530 132.061,321.358 131.374 C 321.223 130.838,320.982 130.400,320.821 130.400 C 320.660 130.400,320.319 129.940,320.063 129.379 C 319.807 128.817,319.058 128.170,318.399 127.940 C 317.740 127.710,317.200 127.359,317.200 127.161 C 317.200 126.962,316.942 126.800,316.627 126.800 C 316.298 126.800,315.999 126.330,315.927 125.700 L 315.800 124.600 311.900 124.486 L 308.000 124.371 308.000 121.159 C 308.000 116.504,307.905 116.400,303.639 116.400 L 300.105 116.400 299.912 113.385 C 299.611 108.701,299.482 108.630,290.911 108.474 L 284.000 108.348 284.000 105.834 C 284.000 103.849,283.540 101.345,283.061 100.721 C 283.027 100.677,275.890 100.542,267.200 100.421 L 251.400 100.200 251.275 98.900 C 251.206 98.185,250.981 97.600,250.775 97.600 C 250.569 97.600,250.400 97.324,250.400 96.986 C 250.400 95.206,248.095 93.600,245.540 93.600 C 244.913 93.600,244.400 93.432,244.400 93.226 C 244.400 92.838,237.678 92.506,234.247 92.724 M50.400 101.200 C 50.400 101.420,50.023 101.600,49.562 101.600 C 47.331 101.600,45.869 103.333,45.387 106.548 L 45.109 108.400 41.443 108.400 C 36.481 108.400,36.458 108.429,36.312 115.048 C 36.212 119.588,36.119 120.160,35.420 120.557 C 34.415 121.127,33.230 122.470,33.213 123.057 C 33.206 123.309,32.885 123.637,32.500 123.786 C 31.833 124.044,31.833 124.082,32.500 124.573 C 32.885 124.856,33.206 125.248,33.213 125.444 C 33.232 125.946,34.493 127.317,35.420 127.843 C 36.150 128.258,36.207 128.838,36.308 136.969 C 36.384 143.115,36.559 145.822,36.908 146.239 C 38.488 148.129,37.357 148.031,56.150 147.912 L 73.819 147.800 74.810 146.877 L 75.800 145.954 75.800 127.611 C 75.800 117.522,75.650 109.117,75.467 108.933 C 75.284 108.750,73.408 108.537,71.298 108.459 C 67.096 108.305,66.656 108.089,66.262 105.989 C 65.737 103.192,62.969 101.630,58.500 101.610 C 57.345 101.604,56.400 101.420,56.400 101.200 C 56.400 100.969,55.133 100.800,53.400 100.800 C 51.667 100.800,50.400 100.969,50.400 101.200 M245.230 125.700 C 245.281 128.545,246.065 130.133,247.634 130.570 C 248.385 130.780,249.124 131.135,249.276 131.359 C 249.445 131.610,252.998 131.819,258.476 131.901 C 269.701 132.068,269.200 131.963,269.200 134.148 C 269.200 136.290,269.900 138.400,270.611 138.400 C 270.903 138.400,271.420 138.677,271.758 139.015 C 272.232 139.489,273.754 139.687,278.387 139.878 L 284.400 140.124 284.400 143.262 C 284.400 145.087,284.567 146.400,284.800 146.400 C 285.020 146.400,285.200 146.651,285.200 146.957 C 285.200 147.774,286.116 148.000,289.433 148.000 L 292.400 148.000 292.400 150.817 C 292.400 155.013,293.357 156.000,297.429 156.000 L 300.400 156.000 300.400 159.195 C 300.400 163.640,300.751 164.000,305.089 164.000 L 308.400 164.000 308.400 171.000 C 308.400 175.400,308.549 178.000,308.800 178.000 C 309.020 178.000,309.200 178.357,309.200 178.792 C 309.200 179.727,309.967 179.955,313.600 180.098 L 316.200 180.200 316.303 204.500 L 316.406 228.800 315.003 228.800 C 314.231 228.800,313.600 228.980,313.600 229.200 C 313.600 229.420,313.321 229.600,312.980 229.600 C 310.785 229.600,309.200 232.023,309.200 235.377 C 309.200 235.940,309.020 236.400,308.800 236.400 C 308.559 236.400,308.400 238.067,308.400 240.600 L 308.400 244.800 306.600 244.800 C 305.610 244.800,304.800 244.954,304.800 245.142 C 304.800 245.330,304.230 245.648,303.534 245.847 C 302.073 246.266,301.280 247.936,301.230 250.700 C 301.214 251.635,301.027 252.400,300.814 252.400 C 300.601 252.400,300.378 254.144,300.314 256.300 L 300.200 260.200 297.200 260.301 C 292.175 260.471,292.448 260.236,292.315 264.504 L 292.200 268.200 286.835 268.482 C 283.884 268.637,281.364 268.918,281.235 269.107 C 281.106 269.295,280.385 269.620,279.634 269.830 C 278.073 270.265,277.282 271.853,277.230 274.657 L 277.200 276.314 272.532 276.462 C 269.289 276.565,267.813 276.761,267.698 277.105 C 267.608 277.377,267.102 277.600,266.575 277.600 C 263.704 277.600,261.600 279.586,261.600 282.296 C 261.600 284.538,263.240 284.400,236.557 284.400 L 212.000 284.400 212.000 281.860 C 212.000 276.462,211.890 276.400,202.390 276.400 L 196.080 276.400 195.940 272.833 C 195.769 268.478,195.921 268.631,191.617 268.462 L 188.100 268.324 187.909 265.347 C 187.652 261.338,186.963 260.664,182.913 260.460 L 180.000 260.313 180.000 257.575 C 180.000 252.934,179.468 252.415,174.700 252.405 L 172.000 252.400 172.000 248.933 C 172.000 245.543,171.335 240.398,170.846 240.000 C 170.711 239.890,170.404 239.440,170.165 239.000 C 169.910 238.532,169.038 238.044,168.065 237.823 C 167.149 237.616,166.400 237.301,166.400 237.123 C 166.400 236.945,165.860 236.800,165.200 236.800 L 164.000 236.800 163.998 229.700 C 163.996 223.041,163.599 219.600,162.832 219.600 C 162.651 219.600,162.393 218.916,162.259 218.081 C 161.944 216.112,159.858 214.207,157.623 213.850 L 156.000 213.591 156.000 204.853 L 156.000 196.116 158.895 195.873 C 160.487 195.740,161.852 195.444,161.928 195.215 C 162.004 194.987,162.302 194.800,162.591 194.800 C 163.607 194.800,163.772 193.295,163.914 182.739 L 164.057 172.077 167.596 171.939 C 171.939 171.768,171.770 171.947,171.939 167.367 C 172.074 163.694,172.101 163.600,173.039 163.600 C 173.567 163.600,174.000 163.443,174.000 163.251 C 174.000 163.059,174.717 162.788,175.593 162.647 C 176.731 162.466,177.386 162.080,177.884 161.296 C 178.268 160.693,178.691 160.110,178.824 160.000 C 179.171 159.713,180.000 155.307,180.000 153.747 C 180.000 152.821,180.248 152.296,180.830 151.984 C 181.911 151.405,183.293 150.025,183.810 149.007 C 184.148 148.342,184.817 148.139,187.610 147.853 C 189.475 147.662,191.090 147.374,191.200 147.213 C 191.310 147.052,191.927 146.747,192.571 146.536 C 193.216 146.325,193.936 145.803,194.171 145.376 C 194.407 144.949,194.740 144.496,194.911 144.370 C 195.081 144.243,195.329 143.225,195.462 142.107 L 195.703 140.074 199.419 139.937 C 203.941 139.770,203.769 139.936,203.939 135.595 L 204.078 132.055 215.349 131.928 C 226.221 131.805,226.653 131.770,227.538 130.944 C 228.042 130.474,228.981 129.984,229.624 129.855 C 231.041 129.572,233.507 127.130,233.857 125.664 C 233.996 125.079,234.186 124.465,234.279 124.300 C 234.371 124.135,236.867 124.000,239.824 124.000 L 245.200 124.000 245.230 125.700 " stroke="none" fill="#000000" fill-rule="evenodd"></path><path id="path2" d="M168.500 28.689 C 167.785 28.778,167.200 29.019,167.200 29.225 C 167.200 29.431,166.936 29.600,166.614 29.600 C 165.839 29.600,165.200 30.853,165.200 32.374 C 165.200 33.048,165.020 33.600,164.800 33.600 C 164.580 33.600,164.400 34.204,164.400 34.942 L 164.400 36.285 161.365 36.514 C 158.120 36.759,157.238 37.309,157.213 39.100 C 157.206 39.595,157.025 40.000,156.810 40.000 C 156.580 40.000,156.376 42.484,156.310 46.100 L 156.200 52.200 152.858 52.317 C 149.930 52.419,149.491 52.531,149.311 53.217 C 149.199 53.648,148.948 54.000,148.753 54.000 C 148.559 54.000,148.400 55.440,148.400 57.200 L 148.400 60.400 132.214 60.400 L 116.029 60.400 115.914 56.500 L 115.800 52.600 111.800 52.400 L 107.800 52.200 107.561 49.700 C 107.321 47.197,106.313 45.600,104.972 45.600 C 104.694 45.600,104.392 45.375,104.300 45.100 C 104.169 44.706,98.111 44.600,75.800 44.600 C 53.489 44.600,47.431 44.706,47.300 45.100 C 47.208 45.375,46.872 45.600,46.553 45.600 C 46.040 45.600,44.144 46.621,43.600 47.191 C 43.490 47.306,42.730 47.741,41.911 48.157 C 40.810 48.717,40.249 49.367,39.757 50.657 C 39.157 52.229,38.962 52.400,37.768 52.400 C 36.477 52.400,36.441 52.446,36.322 54.259 C 36.234 55.601,35.983 56.241,35.420 56.559 C 34.431 57.117,33.231 58.466,33.213 59.037 C 33.206 59.277,32.584 59.806,31.830 60.212 C 30.098 61.144,29.551 62.323,29.299 65.665 L 29.098 68.329 26.349 68.605 C 24.837 68.757,23.600 69.022,23.600 69.194 C 23.600 69.366,23.242 69.600,22.805 69.715 C 21.903 69.950,21.200 71.489,21.200 73.226 C 21.200 73.872,21.020 74.400,20.800 74.400 C 20.580 74.400,20.400 74.850,20.400 75.400 C 20.400 76.386,20.354 76.400,17.089 76.400 C 12.751 76.400,12.400 76.760,12.400 81.205 L 12.400 84.400 9.089 84.400 C 4.751 84.400,4.400 84.760,4.400 89.205 L 4.400 92.400 2.200 92.400 L 0.000 92.400 0.000 211.400 L 0.000 330.400 2.200 330.400 L 4.400 330.400 4.400 333.400 C 4.400 335.133,4.569 336.400,4.800 336.400 C 5.020 336.400,5.206 336.805,5.213 337.300 C 5.238 339.091,6.120 339.641,9.365 339.886 L 12.400 340.115 12.400 341.858 C 12.400 342.816,12.580 343.600,12.800 343.600 C 13.020 343.600,13.206 344.095,13.213 344.700 C 13.246 347.393,14.127 347.731,21.625 347.926 L 28.400 348.102 28.400 350.851 C 28.400 352.363,28.560 353.600,28.757 353.600 C 28.953 353.600,29.223 354.039,29.358 354.576 C 29.556 355.362,29.933 355.598,31.302 355.793 C 34.971 356.315,368.124 355.828,368.300 355.300 C 368.392 355.025,368.694 354.800,368.972 354.800 C 370.313 354.800,371.321 353.203,371.561 350.700 L 371.800 348.200 375.000 348.099 C 380.249 347.934,379.952 348.180,380.085 343.896 L 380.200 340.200 384.000 340.000 L 387.800 339.800 388.000 336.000 L 388.200 332.200 391.600 332.089 C 395.868 331.949,396.000 331.800,396.000 327.124 L 396.000 323.600 398.000 323.600 L 400.000 323.600 400.000 212.000 L 400.000 100.400 398.046 100.400 L 396.092 100.400 395.937 93.630 L 395.782 86.860 394.671 85.831 C 393.791 85.015,392.995 84.749,390.830 84.548 L 388.098 84.294 387.908 81.332 C 387.647 77.266,386.985 76.653,382.635 76.454 C 379.119 76.293,378.644 76.025,378.262 73.989 C 377.923 72.185,376.021 70.409,373.919 69.937 C 373.008 69.733,372.069 69.304,371.831 68.985 C 371.475 68.507,369.380 68.388,359.800 68.303 L 348.200 68.200 347.949 65.800 C 347.653 62.966,347.307 62.000,346.586 62.000 C 346.295 62.000,345.752 61.695,345.379 61.322 C 344.787 60.729,343.401 60.622,334.374 60.472 L 324.047 60.299 323.924 52.782 C 323.780 44.024,324.100 44.638,319.581 44.461 L 316.028 44.321 315.914 40.461 L 315.800 36.600 311.900 36.486 L 308.000 36.371 308.000 33.159 C 308.000 31.393,307.814 29.599,307.586 29.174 C 307.200 28.453,174.141 27.989,168.500 28.689 M278.000 52.971 C 278.000 53.506,278.270 54.213,278.600 54.543 C 278.930 54.873,279.206 55.291,279.213 55.471 C 279.258 56.577,282.001 58.400,283.619 58.400 C 284.048 58.400,284.400 58.651,284.400 58.957 C 284.400 59.792,285.324 60.000,289.033 60.000 L 292.400 60.000 292.400 63.656 C 292.400 66.503,292.538 67.413,293.023 67.767 C 293.365 68.017,293.811 68.958,294.013 69.858 C 294.407 71.612,296.115 73.749,297.408 74.107 C 297.844 74.227,298.695 74.436,299.300 74.570 L 300.400 74.815 300.400 81.408 C 300.400 85.536,300.550 88.000,300.800 88.000 C 301.020 88.000,301.200 88.422,301.200 88.939 C 301.200 89.455,301.575 90.310,302.033 90.839 L 302.867 91.800 322.433 91.918 L 342.000 92.036 342.000 92.989 C 342.000 93.514,342.270 94.213,342.600 94.543 C 342.930 94.873,343.206 95.291,343.213 95.471 C 343.258 96.577,346.001 98.400,347.619 98.400 C 348.048 98.400,348.400 98.649,348.400 98.953 C 348.400 99.743,349.687 99.988,353.855 99.995 L 357.509 100.000 357.771 101.746 C 358.141 104.213,359.747 105.884,362.341 106.500 C 364.299 106.965,364.400 107.053,364.400 108.295 C 364.400 109.013,364.580 109.600,364.800 109.600 C 365.020 109.600,365.200 110.218,365.200 110.974 C 365.200 112.897,365.867 114.440,366.805 114.685 C 367.242 114.800,367.600 115.052,367.600 115.247 C 367.600 115.441,368.275 115.602,369.100 115.605 C 369.925 115.608,371.005 115.719,371.500 115.852 L 372.400 116.093 372.400 212.247 L 372.400 308.400 369.433 308.400 C 366.116 308.400,365.200 308.626,365.200 309.443 C 365.200 309.749,365.020 310.000,364.800 310.000 C 364.567 310.000,364.400 311.333,364.400 313.200 L 364.400 316.400 361.433 316.400 C 358.116 316.400,357.200 316.626,357.200 317.443 C 357.200 317.749,357.020 318.000,356.800 318.000 C 356.567 318.000,356.400 319.334,356.400 321.201 L 356.400 324.401 200.100 324.301 L 43.800 324.200 43.561 321.700 C 43.319 319.175,42.312 317.600,40.939 317.600 C 40.642 317.600,40.400 317.420,40.400 317.200 C 40.400 316.980,39.545 316.797,38.500 316.794 C 36.047 316.786,35.758 316.563,35.400 314.400 C 35.236 313.410,34.985 312.510,34.842 312.400 C 34.699 312.290,34.268 311.707,33.884 311.104 C 33.386 310.320,32.731 309.934,31.593 309.753 C 30.717 309.612,30.000 309.341,30.000 309.149 C 30.000 308.957,29.550 308.800,29.000 308.800 C 28.003 308.800,28.000 308.789,27.982 304.900 C 27.946 296.815,27.080 293.600,24.939 293.600 C 24.642 293.600,24.400 293.429,24.400 293.221 C 24.400 293.012,23.455 292.787,22.300 292.721 L 20.200 292.600 20.099 211.551 L 19.998 130.503 21.518 130.260 C 23.842 129.888,26.400 127.093,26.400 124.925 C 26.400 124.575,26.715 124.058,27.100 123.777 C 27.716 123.327,27.815 122.353,27.924 115.633 L 28.048 108.000 31.610 108.000 C 35.906 108.000,36.000 107.899,36.000 103.266 L 36.000 100.079 42.900 99.940 C 51.384 99.768,51.534 99.685,51.890 94.980 L 52.113 92.028 55.957 91.914 L 59.800 91.800 59.908 83.900 L 60.017 76.000 72.208 76.000 L 84.400 76.000 84.400 78.200 C 84.400 79.410,84.580 80.400,84.800 80.400 C 85.020 80.400,85.201 80.895,85.202 81.500 C 85.204 82.105,85.474 83.116,85.802 83.746 C 86.131 84.376,86.400 85.141,86.400 85.446 C 86.400 85.751,86.558 86.000,86.751 86.000 C 86.945 86.000,87.327 86.540,87.600 87.200 C 87.873 87.860,88.305 88.400,88.560 88.400 C 88.814 88.400,89.330 88.760,89.707 89.200 C 90.084 89.640,90.771 90.000,91.234 90.000 C 91.740 90.000,92.159 90.320,92.285 90.804 C 92.610 92.046,91.893 92.026,133.000 91.910 L 171.800 91.800 171.914 87.930 L 172.028 84.061 174.698 83.775 C 176.167 83.617,177.597 83.260,177.877 82.980 C 178.157 82.700,178.597 82.401,178.854 82.315 C 179.528 82.091,179.937 78.566,179.971 72.700 L 180.000 67.600 181.800 67.600 C 182.790 67.600,183.600 67.442,183.600 67.250 C 183.600 67.058,184.144 66.791,184.809 66.658 C 185.475 66.525,186.137 66.098,186.280 65.708 C 186.424 65.319,186.719 64.882,186.935 64.737 C 187.151 64.592,187.410 63.485,187.510 62.277 L 187.692 60.081 190.756 59.940 C 194.984 59.747,195.649 59.112,195.912 55.015 L 196.105 52.000 237.053 52.000 L 278.000 52.000 278.000 52.971 M234.247 92.724 C 233.173 92.792,232.036 93.107,231.719 93.424 C 231.402 93.741,230.903 94.000,230.611 94.000 C 229.900 94.000,229.200 96.110,229.200 98.252 C 229.200 100.515,230.389 100.369,211.033 100.494 C 198.371 100.576,194.629 100.713,194.500 101.100 C 194.408 101.375,193.971 101.600,193.528 101.600 C 191.332 101.600,189.866 103.351,189.387 106.548 L 189.109 108.400 185.255 108.406 C 181.228 108.413,180.708 108.548,180.283 109.700 C 180.141 110.085,179.658 110.400,179.209 110.400 C 178.760 110.400,178.084 110.760,177.707 111.200 C 177.330 111.640,176.814 112.000,176.560 112.000 C 176.305 112.000,175.873 112.540,175.600 113.200 C 175.327 113.860,174.957 114.400,174.779 114.400 C 174.601 114.400,174.398 114.805,174.328 115.300 C 174.209 116.137,173.941 116.218,170.480 116.462 C 166.435 116.746,165.200 117.448,165.200 119.461 C 165.200 119.978,165.020 120.400,164.800 120.400 C 164.580 120.400,164.400 121.300,164.400 122.400 L 164.400 124.400 161.416 124.400 C 159.224 124.400,158.295 124.563,157.916 125.014 C 157.632 125.352,157.175 125.879,156.900 126.185 C 156.602 126.518,156.400 127.861,156.400 129.513 L 156.400 132.284 153.565 132.522 C 150.467 132.781,149.200 133.634,149.200 135.461 C 149.200 135.978,149.020 136.400,148.800 136.400 C 148.574 136.400,148.400 137.531,148.400 138.992 C 148.400 141.494,148.362 141.593,147.300 141.830 C 146.695 141.964,145.844 142.173,145.408 142.293 C 144.115 142.651,142.407 144.788,142.013 146.542 C 141.811 147.442,141.365 148.383,141.023 148.633 C 140.534 148.990,140.400 149.916,140.400 152.944 L 140.400 156.800 139.000 156.800 C 138.230 156.800,137.600 156.980,137.600 157.200 C 137.600 157.420,137.321 157.600,136.980 157.600 C 134.785 157.600,133.200 160.023,133.200 163.377 C 133.200 163.940,133.022 164.400,132.806 164.400 C 132.557 164.400,132.372 169.149,132.306 177.271 L 132.200 190.143 131.024 190.457 C 130.377 190.630,129.693 191.048,129.504 191.386 C 129.315 191.724,128.911 192.000,128.607 192.000 C 128.303 192.000,127.940 192.359,127.801 192.798 C 127.662 193.236,127.334 193.821,127.073 194.098 C 126.396 194.815,125.196 198.400,125.198 199.700 C 125.199 200.305,125.020 200.800,124.800 200.800 C 124.552 200.800,124.400 203.000,124.400 206.600 C 124.400 210.200,124.552 212.400,124.800 212.400 C 125.020 212.400,125.200 213.183,125.200 214.140 C 125.200 216.289,125.899 218.400,126.611 218.400 C 126.903 218.400,127.402 218.659,127.719 218.976 C 128.036 219.293,129.173 219.608,130.247 219.676 L 132.200 219.800 132.305 234.722 C 132.383 245.866,132.535 249.794,132.905 250.236 C 134.342 251.954,134.461 252.000,137.429 252.000 L 140.400 252.000 140.400 258.829 C 140.400 263.727,140.541 265.815,140.900 266.215 C 141.175 266.521,141.632 267.048,141.916 267.386 C 142.295 267.837,143.224 268.000,145.416 268.000 L 148.400 268.000 148.400 271.792 C 148.400 276.181,148.117 275.927,153.200 276.099 L 156.200 276.200 156.314 280.100 C 156.405 283.181,156.550 284.000,157.007 284.000 C 157.325 284.000,157.695 284.495,157.830 285.100 C 158.313 287.274,158.457 287.576,159.568 288.766 C 160.235 289.479,161.363 290.122,162.330 290.340 C 163.229 290.542,164.255 290.998,164.611 291.353 C 165.109 291.852,166.073 292.000,168.829 292.000 L 172.400 292.000 172.400 295.195 C 172.400 299.589,172.781 300.000,176.856 300.000 C 180.960 300.000,181.200 300.120,181.200 302.183 C 181.200 304.294,181.905 306.400,182.611 306.400 C 182.903 306.400,183.431 306.689,183.784 307.041 C 184.312 307.569,185.751 307.716,191.913 307.870 C 199.066 308.050,201.183 308.390,201.213 309.368 C 201.231 309.935,202.435 311.285,203.420 311.840 C 203.849 312.083,204.257 312.758,204.327 313.340 C 204.396 313.923,204.621 314.400,204.827 314.400 C 205.032 314.400,205.200 314.662,205.200 314.982 C 205.200 315.996,207.080 316.046,240.229 315.922 C 270.326 315.809,272.707 315.750,273.349 315.109 C 273.729 314.729,274.311 314.266,274.642 314.081 C 275.015 313.872,275.405 312.660,275.667 310.896 L 276.090 308.048 283.612 307.924 C 292.373 307.780,291.762 308.096,291.938 303.607 L 292.077 300.079 298.905 299.940 C 303.910 299.837,305.778 299.666,305.900 299.300 C 305.992 299.025,306.302 298.800,306.591 298.800 C 307.317 298.800,307.621 297.840,307.887 294.700 L 308.116 292.000 310.758 291.995 C 315.470 291.985,316.000 291.458,316.000 286.781 L 316.000 284.000 318.700 283.995 C 323.466 283.985,324.000 283.465,324.000 278.839 L 324.000 276.115 326.780 275.856 C 328.996 275.651,329.786 275.389,330.671 274.569 L 331.782 273.540 331.936 266.808 L 332.091 260.076 335.612 259.938 C 340.095 259.762,339.767 260.394,340.000 251.468 L 340.200 243.800 342.300 243.679 C 343.455 243.613,344.400 243.388,344.400 243.179 C 344.400 242.971,344.642 242.800,344.939 242.800 C 347.844 242.800,347.961 241.350,347.982 205.360 C 348.003 169.407,348.515 172.400,342.350 172.400 L 340.000 172.400 340.000 164.933 C 340.000 158.184,339.495 152.528,338.846 152.000 C 338.711 151.890,338.404 151.440,338.165 151.000 C 337.910 150.532,337.038 150.044,336.065 149.823 C 335.149 149.616,334.400 149.301,334.400 149.123 C 334.400 148.945,333.860 148.800,333.200 148.800 L 332.000 148.800 332.000 145.374 C 332.000 140.476,331.933 140.400,327.600 140.400 L 324.029 140.400 323.914 136.500 L 323.800 132.600 322.701 132.474 C 321.925 132.384,321.530 132.061,321.358 131.374 C 321.223 130.838,320.982 130.400,320.821 130.400 C 320.660 130.400,320.319 129.940,320.063 129.379 C 319.807 128.817,319.058 128.170,318.399 127.940 C 317.740 127.710,317.200 127.359,317.200 127.161 C 317.200 126.962,316.942 126.800,316.627 126.800 C 316.298 126.800,315.999 126.330,315.927 125.700 L 315.800 124.600 311.900 124.486 L 308.000 124.371 308.000 121.159 C 308.000 116.504,307.905 116.400,303.639 116.400 L 300.105 116.400 299.912 113.385 C 299.611 108.701,299.482 108.630,290.911 108.474 L 284.000 108.348 284.000 105.834 C 284.000 103.849,283.540 101.345,283.061 100.721 C 283.027 100.677,275.890 100.542,267.200 100.421 L 251.400 100.200 251.275 98.900 C 251.206 98.185,250.981 97.600,250.775 97.600 C 250.569 97.600,250.400 97.324,250.400 96.986 C 250.400 95.206,248.095 93.600,245.540 93.600 C 244.913 93.600,244.400 93.432,244.400 93.226 C 244.400 92.838,237.678 92.506,234.247 92.724 M50.400 101.200 C 50.400 101.420,50.023 101.600,49.562 101.600 C 47.331 101.600,45.869 103.333,45.387 106.548 L 45.109 108.400 41.443 108.400 C 36.481 108.400,36.458 108.429,36.312 115.048 C 36.212 119.588,36.119 120.160,35.420 120.557 C 34.415 121.127,33.230 122.470,33.213 123.057 C 33.206 123.309,32.885 123.637,32.500 123.786 C 31.833 124.044,31.833 124.082,32.500 124.573 C 32.885 124.856,33.206 125.248,33.213 125.444 C 33.232 125.946,34.493 127.317,35.420 127.843 C 36.150 128.258,36.207 128.838,36.308 136.969 C 36.384 143.115,36.559 145.822,36.908 146.239 C 38.488 148.129,37.357 148.031,56.150 147.912 L 73.819 147.800 74.810 146.877 L 75.800 145.954 75.800 127.611 C 75.800 117.522,75.650 109.117,75.467 108.933 C 75.284 108.750,73.408 108.537,71.298 108.459 C 67.096 108.305,66.656 108.089,66.262 105.989 C 65.737 103.192,62.969 101.630,58.500 101.610 C 57.345 101.604,56.400 101.420,56.400 101.200 C 56.400 100.969,55.133 100.800,53.400 100.800 C 51.667 100.800,50.400 100.969,50.400 101.200 M245.230 125.700 C 245.281 128.545,246.065 130.133,247.634 130.570 C 248.385 130.780,249.124 131.135,249.276 131.359 C 249.445 131.610,252.998 131.819,258.476 131.901 C 269.701 132.068,269.200 131.963,269.200 134.148 C 269.200 136.290,269.900 138.400,270.611 138.400 C 270.903 138.400,271.420 138.677,271.758 139.015 C 272.232 139.489,273.754 139.687,278.387 139.878 L 284.400 140.124 284.400 143.262 C 284.400 145.087,284.567 146.400,284.800 146.400 C 285.020 146.400,285.200 146.651,285.200 146.957 C 285.200 147.774,286.116 148.000,289.433 148.000 L 292.400 148.000 292.400 150.817 C 292.400 155.013,293.357 156.000,297.429 156.000 L 300.400 156.000 300.400 159.195 C 300.400 163.640,300.751 164.000,305.089 164.000 L 308.400 164.000 308.400 171.000 C 308.400 175.400,308.549 178.000,308.800 178.000 C 309.020 178.000,309.200 178.357,309.200 178.792 C 309.200 179.727,309.967 179.955,313.600 180.098 L 316.200 180.200 316.303 204.500 L 316.406 228.800 315.003 228.800 C 314.231 228.800,313.600 228.980,313.600 229.200 C 313.600 229.420,313.321 229.600,312.980 229.600 C 310.785 229.600,309.200 232.023,309.200 235.377 C 309.200 235.940,309.020 236.400,308.800 236.400 C 308.559 236.400,308.400 238.067,308.400 240.600 L 308.400 244.800 306.600 244.800 C 305.610 244.800,304.800 244.954,304.800 245.142 C 304.800 245.330,304.230 245.648,303.534 245.847 C 302.073 246.266,301.280 247.936,301.230 250.700 C 301.214 251.635,301.027 252.400,300.814 252.400 C 300.601 252.400,300.378 254.144,300.314 256.300 L 300.200 260.200 297.200 260.301 C 292.175 260.471,292.448 260.236,292.315 264.504 L 292.200 268.200 286.835 268.482 C 283.884 268.637,281.364 268.918,281.235 269.107 C 281.106 269.295,280.385 269.620,279.634 269.830 C 278.073 270.265,277.282 271.853,277.230 274.657 L 277.200 276.314 272.532 276.462 C 269.289 276.565,267.813 276.761,267.698 277.105 C 267.608 277.377,267.102 277.600,266.575 277.600 C 263.704 277.600,261.600 279.586,261.600 282.296 C 261.600 284.538,263.240 284.400,236.557 284.400 L 212.000 284.400 212.000 281.860 C 212.000 276.462,211.890 276.400,202.390 276.400 L 196.080 276.400 195.940 272.833 C 195.769 268.478,195.921 268.631,191.617 268.462 L 188.100 268.324 187.909 265.347 C 187.652 261.338,186.963 260.664,182.913 260.460 L 180.000 260.313 180.000 257.575 C 180.000 252.934,179.468 252.415,174.700 252.405 L 172.000 252.400 172.000 248.933 C 172.000 245.543,171.335 240.398,170.846 240.000 C 170.711 239.890,170.404 239.440,170.165 239.000 C 169.910 238.532,169.038 238.044,168.065 237.823 C 167.149 237.616,166.400 237.301,166.400 237.123 C 166.400 236.945,165.860 236.800,165.200 236.800 L 164.000 236.800 163.998 229.700 C 163.996 223.041,163.599 219.600,162.832 219.600 C 162.651 219.600,162.393 218.916,162.259 218.081 C 161.944 216.112,159.858 214.207,157.623 213.850 L 156.000 213.591 156.000 204.853 L 156.000 196.116 158.895 195.873 C 160.487 195.740,161.852 195.444,161.928 195.215 C 162.004 194.987,162.302 194.800,162.591 194.800 C 163.607 194.800,163.772 193.295,163.914 182.739 L 164.057 172.077 167.596 171.939 C 171.939 171.768,171.770 171.947,171.939 167.367 C 172.074 163.694,172.101 163.600,173.039 163.600 C 173.567 163.600,174.000 163.443,174.000 163.251 C 174.000 163.059,174.717 162.788,175.593 162.647 C 176.731 162.466,177.386 162.080,177.884 161.296 C 178.268 160.693,178.691 160.110,178.824 160.000 C 179.171 159.713,180.000 155.307,180.000 153.747 C 180.000 152.821,180.248 152.296,180.830 151.984 C 181.911 151.405,183.293 150.025,183.810 149.007 C 184.148 148.342,184.817 148.139,187.610 147.853 C 189.475 147.662,191.090 147.374,191.200 147.213 C 191.310 147.052,191.927 146.747,192.571 146.536 C 193.216 146.325,193.936 145.803,194.171 145.376 C 194.407 144.949,194.740 144.496,194.911 144.370 C 195.081 144.243,195.329 143.225,195.462 142.107 L 195.703 140.074 199.419 139.937 C 203.941 139.770,203.769 139.936,203.939 135.595 L 204.078 132.055 215.349 131.928 C 226.221 131.805,226.653 131.770,227.538 130.944 C 228.042 130.474,228.981 129.984,229.624 129.855 C 231.041 129.572,233.507 127.130,233.857 125.664 C 233.996 125.079,234.186 124.465,234.279 124.300 C 234.371 124.135,236.867 124.000,239.824 124.000 L 245.200 124.000 245.230 125.700 " stroke="none" fill="#000000" fill-rule="evenodd"></path><path id="path3" d="M168.500 28.689 C 167.785 28.778,167.200 29.019,167.200 29.225 C 167.200 29.431,166.936 29.600,166.614 29.600 C 165.839 29.600,165.200 30.853,165.200 32.374 C 165.200 33.048,165.020 33.600,164.800 33.600 C 164.580 33.600,164.400 34.204,164.400 34.942 L 164.400 36.285 161.365 36.514 C 158.120 36.759,157.238 37.309,157.213 39.100 C 157.206 39.595,157.025 40.000,156.810 40.000 C 156.580 40.000,156.376 42.484,156.310 46.100 L 156.200 52.200 152.858 52.317 C 149.930 52.419,149.491 52.531,149.311 53.217 C 149.199 53.648,148.948 54.000,148.753 54.000 C 148.559 54.000,148.400 55.440,148.400 57.200 L 148.400 60.400 132.214 60.400 L 116.029 60.400 115.914 56.500 L 115.800 52.600 111.800 52.400 L 107.800 52.200 107.561 49.700 C 107.321 47.197,106.313 45.600,104.972 45.600 C 104.694 45.600,104.392 45.375,104.300 45.100 C 104.169 44.706,98.111 44.600,75.800 44.600 C 53.489 44.600,47.431 44.706,47.300 45.100 C 47.208 45.375,46.872 45.600,46.553 45.600 C 46.040 45.600,44.144 46.621,43.600 47.191 C 43.490 47.306,42.730 47.741,41.911 48.157 C 40.810 48.717,40.249 49.367,39.757 50.657 C 39.157 52.229,38.962 52.400,37.768 52.400 C 36.477 52.400,36.441 52.446,36.322 54.259 C 36.234 55.601,35.983 56.241,35.420 56.559 C 34.431 57.117,33.231 58.466,33.213 59.037 C 33.206 59.277,32.584 59.806,31.830 60.212 C 30.098 61.144,29.551 62.323,29.299 65.665 L 29.098 68.329 26.349 68.605 C 24.837 68.757,23.600 69.022,23.600 69.194 C 23.600 69.366,23.242 69.600,22.805 69.715 C 21.903 69.950,21.200 71.489,21.200 73.226 C 21.200 73.872,21.020 74.400,20.800 74.400 C 20.580 74.400,20.400 74.850,20.400 75.400 C 20.400 76.386,20.354 76.400,17.089 76.400 C 12.751 76.400,12.400 76.760,12.400 81.205 L 12.400 84.400 9.089 84.400 C 4.751 84.400,4.400 84.760,4.400 89.205 L 4.400 92.400 2.200 92.400 L 0.000 92.400 0.000 211.400 L 0.000 330.400 2.200 330.400 L 4.400 330.400 4.400 333.400 C 4.400 335.133,4.569 336.400,4.800 336.400 C 5.020 336.400,5.206 336.805,5.213 337.300 C 5.238 339.091,6.120 339.641,9.365 339.886 L 12.400 340.115 12.400 341.858 C 12.400 342.816,12.580 343.600,12.800 343.600 C 13.020 343.600,13.206 344.095,13.213 344.700 C 13.246 347.393,14.127 347.731,21.625 347.926 L 28.400 348.102 28.400 350.851 C 28.400 352.363,28.560 353.600,28.757 353.600 C 28.953 353.600,29.223 354.039,29.358 354.576 C 29.556 355.362,29.933 355.598,31.302 355.793 C 34.971 356.315,368.124 355.828,368.300 355.300 C 368.392 355.025,368.694 354.800,368.972 354.800 C 370.313 354.800,371.321 353.203,371.561 350.700 L 371.800 348.200 375.000 348.099 C 380.249 347.934,379.952 348.180,380.085 343.896 L 380.200 340.200 384.000 340.000 L 387.800 339.800 388.000 336.000 L 388.200 332.200 391.600 332.089 C 395.868 331.949,396.000 331.800,396.000 327.124 L 396.000 323.600 398.000 323.600 L 400.000 323.600 400.000 212.000 L 400.000 100.400 398.046 100.400 L 396.092 100.400 395.937 93.630 L 395.782 86.860 394.671 85.831 C 393.791 85.015,392.995 84.749,390.830 84.548 L 388.098 84.294 387.908 81.332 C 387.647 77.266,386.985 76.653,382.635 76.454 C 379.119 76.293,378.644 76.025,378.262 73.989 C 377.923 72.185,376.021 70.409,373.919 69.937 C 373.008 69.733,372.069 69.304,371.831 68.985 C 371.475 68.507,369.380 68.388,359.800 68.303 L 348.200 68.200 347.949 65.800 C 347.653 62.966,347.307 62.000,346.586 62.000 C 346.295 62.000,345.752 61.695,345.379 61.322 C 344.787 60.729,343.401 60.622,334.374 60.472 L 324.047 60.299 323.924 52.782 C 323.780 44.024,324.100 44.638,319.581 44.461 L 316.028 44.321 315.914 40.461 L 315.800 36.600 311.900 36.486 L 308.000 36.371 308.000 33.159 C 308.000 31.393,307.814 29.599,307.586 29.174 C 307.200 28.453,174.141 27.989,168.500 28.689 M278.000 52.971 C 278.000 53.506,278.270 54.213,278.600 54.543 C 278.930 54.873,279.206 55.291,279.213 55.471 C 279.258 56.577,282.001 58.400,283.619 58.400 C 284.048 58.400,284.400 58.651,284.400 58.957 C 284.400 59.792,285.324 60.000,289.033 60.000 L 292.400 60.000 292.400 63.656 C 292.400 66.503,292.538 67.413,293.023 67.767 C 293.365 68.017,293.811 68.958,294.013 69.858 C 294.407 71.612,296.115 73.749,297.408 74.107 C 297.844 74.227,298.695 74.436,299.300 74.570 L 300.400 74.815 300.400 81.408 C 300.400 85.536,300.550 88.000,300.800 88.000 C 301.020 88.000,301.200 88.422,301.200 88.939 C 301.200 89.455,301.575 90.310,302.033 90.839 L 302.867 91.800 322.433 91.918 L 342.000 92.036 342.000 92.989 C 342.000 93.514,342.270 94.213,342.600 94.543 C 342.930 94.873,343.206 95.291,343.213 95.471 C 343.258 96.577,346.001 98.400,347.619 98.400 C 348.048 98.400,348.400 98.649,348.400 98.953 C 348.400 99.743,349.687 99.988,353.855 99.995 L 357.509 100.000 357.771 101.746 C 358.141 104.213,359.747 105.884,362.341 106.500 C 364.299 106.965,364.400 107.053,364.400 108.295 C 364.400 109.013,364.580 109.600,364.800 109.600 C 365.020 109.600,365.200 110.218,365.200 110.974 C 365.200 112.897,365.867 114.440,366.805 114.685 C 367.242 114.800,367.600 115.052,367.600 115.247 C 367.600 115.441,368.275 115.602,369.100 115.605 C 369.925 115.608,371.005 115.719,371.500 115.852 L 372.400 116.093 372.400 212.247 L 372.400 308.400 369.433 308.400 C 366.116 308.400,365.200 308.626,365.200 309.443 C 365.200 309.749,365.020 310.000,364.800 310.000 C 364.567 310.000,364.400 311.333,364.400 313.200 L 364.400 316.400 361.433 316.400 C 358.116 316.400,357.200 316.626,357.200 317.443 C 357.200 317.749,357.020 318.000,356.800 318.000 C 356.567 318.000,356.400 319.334,356.400 321.201 L 356.400 324.401 200.100 324.301 L 43.800 324.200 43.561 321.700 C 43.319 319.175,42.312 317.600,40.939 317.600 C 40.642 317.600,40.400 317.420,40.400 317.200 C 40.400 316.980,39.545 316.797,38.500 316.794 C 36.047 316.786,35.758 316.563,35.400 314.400 C 35.236 313.410,34.985 312.510,34.842 312.400 C 34.699 312.290,34.268 311.707,33.884 311.104 C 33.386 310.320,32.731 309.934,31.593 309.753 C 30.717 309.612,30.000 309.341,30.000 309.149 C 30.000 308.957,29.550 308.800,29.000 308.800 C 28.003 308.800,28.000 308.789,27.982 304.900 C 27.946 296.815,27.080 293.600,24.939 293.600 C 24.642 293.600,24.400 293.429,24.400 293.221 C 24.400 293.012,23.455 292.787,22.300 292.721 L 20.200 292.600 20.099 211.551 L 19.998 130.503 21.518 130.260 C 23.842 129.888,26.400 127.093,26.400 124.925 C 26.400 124.575,26.715 124.058,27.100 123.777 C 27.716 123.327,27.815 122.353,27.924 115.633 L 28.048 108.000 31.610 108.000 C 35.906 108.000,36.000 107.899,36.000 103.266 L 36.000 100.079 42.900 99.940 C 51.384 99.768,51.534 99.685,51.890 94.980 L 52.113 92.028 55.957 91.914 L 59.800 91.800 59.908 83.900 L 60.017 76.000 72.208 76.000 L 84.400 76.000 84.400 78.200 C 84.400 79.410,84.580 80.400,84.800 80.400 C 85.020 80.400,85.201 80.895,85.202 81.500 C 85.204 82.105,85.474 83.116,85.802 83.746 C 86.131 84.376,86.400 85.141,86.400 85.446 C 86.400 85.751,86.558 86.000,86.751 86.000 C 86.945 86.000,87.327 86.540,87.600 87.200 C 87.873 87.860,88.305 88.400,88.560 88.400 C 88.814 88.400,89.330 88.760,89.707 89.200 C 90.084 89.640,90.771 90.000,91.234 90.000 C 91.740 90.000,92.159 90.320,92.285 90.804 C 92.610 92.046,91.893 92.026,133.000 91.910 L 171.800 91.800 171.914 87.930 L 172.028 84.061 174.698 83.775 C 176.167 83.617,177.597 83.260,177.877 82.980 C 178.157 82.700,178.597 82.401,178.854 82.315 C 179.528 82.091,179.937 78.566,179.971 72.700 L 180.000 67.600 181.800 67.600 C 182.790 67.600,183.600 67.442,183.600 67.250 C 183.600 67.058,184.144 66.791,184.809 66.658 C 185.475 66.525,186.137 66.098,186.280 65.708 C 186.424 65.319,186.719 64.882,186.935 64.737 C 187.151 64.592,187.410 63.485,187.510 62.277 L 187.692 60.081 190.756 59.940 C 194.984 59.747,195.649 59.112,195.912 55.015 L 196.105 52.000 237.053 52.000 L 278.000 52.000 278.000 52.971 M234.247 92.724 C 233.173 92.792,232.036 93.107,231.719 93.424 C 231.402 93.741,230.903 94.000,230.611 94.000 C 229.900 94.000,229.200 96.110,229.200 98.252 C 229.200 100.515,230.389 100.369,211.033 100.494 C 198.371 100.576,194.629 100.713,194.500 101.100 C 194.408 101.375,193.971 101.600,193.528 101.600 C 191.332 101.600,189.866 103.351,189.387 106.548 L 189.109 108.400 185.255 108.406 C 181.228 108.413,180.708 108.548,180.283 109.700 C 180.141 110.085,179.658 110.400,179.209 110.400 C 178.760 110.400,178.084 110.760,177.707 111.200 C 177.330 111.640,176.814 112.000,176.560 112.000 C 176.305 112.000,175.873 112.540,175.600 113.200 C 175.327 113.860,174.957 114.400,174.779 114.400 C 174.601 114.400,174.398 114.805,174.328 115.300 C 174.209 116.137,173.941 116.218,170.480 116.462 C 166.435 116.746,165.200 117.448,165.200 119.461 C 165.200 119.978,165.020 120.400,164.800 120.400 C 164.580 120.400,164.400 121.300,164.400 122.400 L 164.400 124.400 161.416 124.400 C 159.224 124.400,158.295 124.563,157.916 125.014 C 157.632 125.352,157.175 125.879,156.900 126.185 C 156.602 126.518,156.400 127.861,156.400 129.513 L 156.400 132.284 153.565 132.522 C 150.467 132.781,149.200 133.634,149.200 135.461 C 149.200 135.978,149.020 136.400,148.800 136.400 C 148.574 136.400,148.400 137.531,148.400 138.992 C 148.400 141.494,148.362 141.593,147.300 141.830 C 146.695 141.964,145.844 142.173,145.408 142.293 C 144.115 142.651,142.407 144.788,142.013 146.542 C 141.811 147.442,141.365 148.383,141.023 148.633 C 140.534 148.990,140.400 149.916,140.400 152.944 L 140.400 156.800 139.000 156.800 C 138.230 156.800,137.600 156.980,137.600 157.200 C 137.600 157.420,137.321 157.600,136.980 157.600 C 134.785 157.600,133.200 160.023,133.200 163.377 C 133.200 163.940,133.022 164.400,132.806 164.400 C 132.557 164.400,132.372 169.149,132.306 177.271 L 132.200 190.143 131.024 190.457 C 130.377 190.630,129.693 191.048,129.504 191.386 C 129.315 191.724,128.911 192.000,128.607 192.000 C 128.303 192.000,127.940 192.359,127.801 192.798 C 127.662 193.236,127.334 193.821,127.073 194.098 C 126.396 194.815,125.196 198.400,125.198 199.700 C 125.199 200.305,125.020 200.800,124.800 200.800 C 124.552 200.800,124.400 203.000,124.400 206.600 C 124.400 210.200,124.552 212.400,124.800 212.400 C 125.020 212.400,125.200 213.183,125.200 214.140 C 125.200 216.289,125.899 218.400,126.611 218.400 C 126.903 218.400,127.402 218.659,127.719 218.976 C 128.036 219.293,129.173 219.608,130.247 219.676 L 132.200 219.800 132.305 234.722 C 132.383 245.866,132.535 249.794,132.905 250.236 C 134.342 251.954,134.461 252.000,137.429 252.000 L 140.400 252.000 140.400 258.829 C 140.400 263.727,140.541 265.815,140.900 266.215 C 141.175 266.521,141.632 267.048,141.916 267.386 C 142.295 267.837,143.224 268.000,145.416 268.000 L 148.400 268.000 148.400 271.792 C 148.400 276.181,148.117 275.927,153.200 276.099 L 156.200 276.200 156.314 280.100 C 156.405 283.181,156.550 284.000,157.007 284.000 C 157.325 284.000,157.695 284.495,157.830 285.100 C 158.313 287.274,158.457 287.576,159.568 288.766 C 160.235 289.479,161.363 290.122,162.330 290.340 C 163.229 290.542,164.255 290.998,164.611 291.353 C 165.109 291.852,166.073 292.000,168.829 292.000 L 172.400 292.000 172.400 295.195 C 172.400 299.589,172.781 300.000,176.856 300.000 C 180.960 300.000,181.200 300.120,181.200 302.183 C 181.200 304.294,181.905 306.400,182.611 306.400 C 182.903 306.400,183.431 306.689,183.784 307.041 C 184.312 307.569,185.751 307.716,191.913 307.870 C 199.066 308.050,201.183 308.390,201.213 309.368 C 201.231 309.935,202.435 311.285,203.420 311.840 C 203.849 312.083,204.257 312.758,204.327 313.340 C 204.396 313.923,204.621 314.400,204.827 314.400 C 205.032 314.400,205.200 314.662,205.200 314.982 C 205.200 315.996,207.080 316.046,240.229 315.922 C 270.326 315.809,272.707 315.750,273.349 315.109 C 273.729 314.729,274.311 314.266,274.642 314.081 C 275.015 313.872,275.405 312.660,275.667 310.896 L 276.090 308.048 283.612 307.924 C 292.373 307.780,291.762 308.096,291.938 303.607 L 292.077 300.079 298.905 299.940 C 303.910 299.837,305.778 299.666,305.900 299.300 C 305.992 299.025,306.302 298.800,306.591 298.800 C 307.317 298.800,307.621 297.840,307.887 294.700 L 308.116 292.000 310.758 291.995 C 315.470 291.985,316.000 291.458,316.000 286.781 L 316.000 284.000 318.700 283.995 C 323.466 283.985,324.000 283.465,324.000 278.839 L 324.000 276.115 326.780 275.856 C 328.996 275.651,329.786 275.389,330.671 274.569 L 331.782 273.540 331.936 266.808 L 332.091 260.076 335.612 259.938 C 340.095 259.762,339.767 260.394,340.000 251.468 L 340.200 243.800 342.300 243.679 C 343.455 243.613,344.400 243.388,344.400 243.179 C 344.400 242.971,344.642 242.800,344.939 242.800 C 347.844 242.800,347.961 241.350,347.982 205.360 C 348.003 169.407,348.515 172.400,342.350 172.400 L 340.000 172.400 340.000 164.933 C 340.000 158.184,339.495 152.528,338.846 152.000 C 338.711 151.890,338.404 151.440,338.165 151.000 C 337.910 150.532,337.038 150.044,336.065 149.823 C 335.149 149.616,334.400 149.301,334.400 149.123 C 334.400 148.945,333.860 148.800,333.200 148.800 L 332.000 148.800 332.000 145.374 C 332.000 140.476,331.933 140.400,327.600 140.400 L 324.029 140.400 323.914 136.500 L 323.800 132.600 322.701 132.474 C 321.925 132.384,321.530 132.061,321.358 131.374 C 321.223 130.838,320.982 130.400,320.821 130.400 C 320.660 130.400,320.319 129.940,320.063 129.379 C 319.807 128.817,319.058 128.170,318.399 127.940 C 317.740 127.710,317.200 127.359,317.200 127.161 C 317.200 126.962,316.942 126.800,316.627 126.800 C 316.298 126.800,315.999 126.330,315.927 125.700 L 315.800 124.600 311.900 124.486 L 308.000 124.371 308.000 121.159 C 308.000 116.504,307.905 116.400,303.639 116.400 L 300.105 116.400 299.912 113.385 C 299.611 108.701,299.482 108.630,290.911 108.474 L 284.000 108.348 284.000 105.834 C 284.000 103.849,283.540 101.345,283.061 100.721 C 283.027 100.677,275.890 100.542,267.200 100.421 L 251.400 100.200 251.275 98.900 C 251.206 98.185,250.981 97.600,250.775 97.600 C 250.569 97.600,250.400 97.324,250.400 96.986 C 250.400 95.206,248.095 93.600,245.540 93.600 C 244.913 93.600,244.400 93.432,244.400 93.226 C 244.400 92.838,237.678 92.506,234.247 92.724 M50.400 101.200 C 50.400 101.420,50.023 101.600,49.562 101.600 C 47.331 101.600,45.869 103.333,45.387 106.548 L 45.109 108.400 41.443 108.400 C 36.481 108.400,36.458 108.429,36.312 115.048 C 36.212 119.588,36.119 120.160,35.420 120.557 C 34.415 121.127,33.230 122.470,33.213 123.057 C 33.206 123.309,32.885 123.637,32.500 123.786 C 31.833 124.044,31.833 124.082,32.500 124.573 C 32.885 124.856,33.206 125.248,33.213 125.444 C 33.232 125.946,34.493 127.317,35.420 127.843 C 36.150 128.258,36.207 128.838,36.308 136.969 C 36.384 143.115,36.559 145.822,36.908 146.239 C 38.488 148.129,37.357 148.031,56.150 147.912 L 73.819 147.800 74.810 146.877 L 75.800 145.954 75.800 127.611 C 75.800 117.522,75.650 109.117,75.467 108.933 C 75.284 108.750,73.408 108.537,71.298 108.459 C 67.096 108.305,66.656 108.089,66.262 105.989 C 65.737 103.192,62.969 101.630,58.500 101.610 C 57.345 101.604,56.400 101.420,56.400 101.200 C 56.400 100.969,55.133 100.800,53.400 100.800 C 51.667 100.800,50.400 100.969,50.400 101.200 M245.230 125.700 C 245.281 128.545,246.065 130.133,247.634 130.570 C 248.385 130.780,249.124 131.135,249.276 131.359 C 249.445 131.610,252.998 131.819,258.476 131.901 C 269.701 132.068,269.200 131.963,269.200 134.148 C 269.200 136.290,269.900 138.400,270.611 138.400 C 270.903 138.400,271.420 138.677,271.758 139.015 C 272.232 139.489,273.754 139.687,278.387 139.878 L 284.400 140.124 284.400 143.262 C 284.400 145.087,284.567 146.400,284.800 146.400 C 285.020 146.400,285.200 146.651,285.200 146.957 C 285.200 147.774,286.116 148.000,289.433 148.000 L 292.400 148.000 292.400 150.817 C 292.400 155.013,293.357 156.000,297.429 156.000 L 300.400 156.000 300.400 159.195 C 300.400 163.640,300.751 164.000,305.089 164.000 L 308.400 164.000 308.400 171.000 C 308.400 175.400,308.549 178.000,308.800 178.000 C 309.020 178.000,309.200 178.357,309.200 178.792 C 309.200 179.727,309.967 179.955,313.600 180.098 L 316.200 180.200 316.303 204.500 L 316.406 228.800 315.003 228.800 C 314.231 228.800,313.600 228.980,313.600 229.200 C 313.600 229.420,313.321 229.600,312.980 229.600 C 310.785 229.600,309.200 232.023,309.200 235.377 C 309.200 235.940,309.020 236.400,308.800 236.400 C 308.559 236.400,308.400 238.067,308.400 240.600 L 308.400 244.800 306.600 244.800 C 305.610 244.800,304.800 244.954,304.800 245.142 C 304.800 245.330,304.230 245.648,303.534 245.847 C 302.073 246.266,301.280 247.936,301.230 250.700 C 301.214 251.635,301.027 252.400,300.814 252.400 C 300.601 252.400,300.378 254.144,300.314 256.300 L 300.200 260.200 297.200 260.301 C 292.175 260.471,292.448 260.236,292.315 264.504 L 292.200 268.200 286.835 268.482 C 283.884 268.637,281.364 268.918,281.235 269.107 C 281.106 269.295,280.385 269.620,279.634 269.830 C 278.073 270.265,277.282 271.853,277.230 274.657 L 277.200 276.314 272.532 276.462 C 269.289 276.565,267.813 276.761,267.698 277.105 C 267.608 277.377,267.102 277.600,266.575 277.600 C 263.704 277.600,261.600 279.586,261.600 282.296 C 261.600 284.538,263.240 284.400,236.557 284.400 L 212.000 284.400 212.000 281.860 C 212.000 276.462,211.890 276.400,202.390 276.400 L 196.080 276.400 195.940 272.833 C 195.769 268.478,195.921 268.631,191.617 268.462 L 188.100 268.324 187.909 265.347 C 187.652 261.338,186.963 260.664,182.913 260.460 L 180.000 260.313 180.000 257.575 C 180.000 252.934,179.468 252.415,174.700 252.405 L 172.000 252.400 172.000 248.933 C 172.000 245.543,171.335 240.398,170.846 240.000 C 170.711 239.890,170.404 239.440,170.165 239.000 C 169.910 238.532,169.038 238.044,168.065 237.823 C 167.149 237.616,166.400 237.301,166.400 237.123 C 166.400 236.945,165.860 236.800,165.200 236.800 L 164.000 236.800 163.998 229.700 C 163.996 223.041,163.599 219.600,162.832 219.600 C 162.651 219.600,162.393 218.916,162.259 218.081 C 161.944 216.112,159.858 214.207,157.623 213.850 L 156.000 213.591 156.000 204.853 L 156.000 196.116 158.895 195.873 C 160.487 195.740,161.852 195.444,161.928 195.215 C 162.004 194.987,162.302 194.800,162.591 194.800 C 163.607 194.800,163.772 193.295,163.914 182.739 L 164.057 172.077 167.596 171.939 C 171.939 171.768,171.770 171.947,171.939 167.367 C 172.074 163.694,172.101 163.600,173.039 163.600 C 173.567 163.600,174.000 163.443,174.000 163.251 C 174.000 163.059,174.717 162.788,175.593 162.647 C 176.731 162.466,177.386 162.080,177.884 161.296 C 178.268 160.693,178.691 160.110,178.824 160.000 C 179.171 159.713,180.000 155.307,180.000 153.747 C 180.000 152.821,180.248 152.296,180.830 151.984 C 181.911 151.405,183.293 150.025,183.810 149.007 C 184.148 148.342,184.817 148.139,187.610 147.853 C 189.475 147.662,191.090 147.374,191.200 147.213 C 191.310 147.052,191.927 146.747,192.571 146.536 C 193.216 146.325,193.936 145.803,194.171 145.376 C 194.407 144.949,194.740 144.496,194.911 144.370 C 195.081 144.243,195.329 143.225,195.462 142.107 L 195.703 140.074 199.419 139.937 C 203.941 139.770,203.769 139.936,203.939 135.595 L 204.078 132.055 215.349 131.928 C 226.221 131.805,226.653 131.770,227.538 130.944 C 228.042 130.474,228.981 129.984,229.624 129.855 C 231.041 129.572,233.507 127.130,233.857 125.664 C 233.996 125.079,234.186 124.465,234.279 124.300 C 234.371 124.135,236.867 124.000,239.824 124.000 L 245.200 124.000 245.230 125.700 " stroke="none" fill="#000000" fill-rule="evenodd"></path><path id="path4" d="M168.500 28.689 C 167.785 28.778,167.200 29.019,167.200 29.225 C 167.200 29.431,166.936 29.600,166.614 29.600 C 165.839 29.600,165.200 30.853,165.200 32.374 C 165.200 33.048,165.020 33.600,164.800 33.600 C 164.580 33.600,164.400 34.204,164.400 34.942 L 164.400 36.285 161.365 36.514 C 158.120 36.759,157.238 37.309,157.213 39.100 C 157.206 39.595,157.025 40.000,156.810 40.000 C 156.580 40.000,156.376 42.484,156.310 46.100 L 156.200 52.200 152.858 52.317 C 149.930 52.419,149.491 52.531,149.311 53.217 C 149.199 53.648,148.948 54.000,148.753 54.000 C 148.559 54.000,148.400 55.440,148.400 57.200 L 148.400 60.400 132.214 60.400 L 116.029 60.400 115.914 56.500 L 115.800 52.600 111.800 52.400 L 107.800 52.200 107.561 49.700 C 107.321 47.197,106.313 45.600,104.972 45.600 C 104.694 45.600,104.392 45.375,104.300 45.100 C 104.169 44.706,98.111 44.600,75.800 44.600 C 53.489 44.600,47.431 44.706,47.300 45.100 C 47.208 45.375,46.872 45.600,46.553 45.600 C 46.040 45.600,44.144 46.621,43.600 47.191 C 43.490 47.306,42.730 47.741,41.911 48.157 C 40.810 48.717,40.249 49.367,39.757 50.657 C 39.157 52.229,38.962 52.400,37.768 52.400 C 36.477 52.400,36.441 52.446,36.322 54.259 C 36.234 55.601,35.983 56.241,35.420 56.559 C 34.431 57.117,33.231 58.466,33.213 59.037 C 33.206 59.277,32.584 59.806,31.830 60.212 C 30.098 61.144,29.551 62.323,29.299 65.665 L 29.098 68.329 26.349 68.605 C 24.837 68.757,23.600 69.022,23.600 69.194 C 23.600 69.366,23.242 69.600,22.805 69.715 C 21.903 69.950,21.200 71.489,21.200 73.226 C 21.200 73.872,21.020 74.400,20.800 74.400 C 20.580 74.400,20.400 74.850,20.400 75.400 C 20.400 76.386,20.354 76.400,17.089 76.400 C 12.751 76.400,12.400 76.760,12.400 81.205 L 12.400 84.400 9.089 84.400 C 4.751 84.400,4.400 84.760,4.400 89.205 L 4.400 92.400 2.200 92.400 L 0.000 92.400 0.000 211.400 L 0.000 330.400 2.200 330.400 L 4.400 330.400 4.400 333.400 C 4.400 335.133,4.569 336.400,4.800 336.400 C 5.020 336.400,5.206 336.805,5.213 337.300 C 5.238 339.091,6.120 339.641,9.365 339.886 L 12.400 340.115 12.400 341.858 C 12.400 342.816,12.580 343.600,12.800 343.600 C 13.020 343.600,13.206 344.095,13.213 344.700 C 13.246 347.393,14.127 347.731,21.625 347.926 L 28.400 348.102 28.400 350.851 C 28.400 352.363,28.560 353.600,28.757 353.600 C 28.953 353.600,29.223 354.039,29.358 354.576 C 29.556 355.362,29.933 355.598,31.302 355.793 C 34.971 356.315,368.124 355.828,368.300 355.300 C 368.392 355.025,368.694 354.800,368.972 354.800 C 370.313 354.800,371.321 353.203,371.561 350.700 L 371.800 348.200 375.000 348.099 C 380.249 347.934,379.952 348.180,380.085 343.896 L 380.200 340.200 384.000 340.000 L 387.800 339.800 388.000 336.000 L 388.200 332.200 391.600 332.089 C 395.868 331.949,396.000 331.800,396.000 327.124 L 396.000 323.600 398.000 323.600 L 400.000 323.600 400.000 212.000 L 400.000 100.400 398.046 100.400 L 396.092 100.400 395.937 93.630 L 395.782 86.860 394.671 85.831 C 393.791 85.015,392.995 84.749,390.830 84.548 L 388.098 84.294 387.908 81.332 C 387.647 77.266,386.985 76.653,382.635 76.454 C 379.119 76.293,378.644 76.025,378.262 73.989 C 377.923 72.185,376.021 70.409,373.919 69.937 C 373.008 69.733,372.069 69.304,371.831 68.985 C 371.475 68.507,369.380 68.388,359.800 68.303 L 348.200 68.200 347.949 65.800 C 347.653 62.966,347.307 62.000,346.586 62.000 C 346.295 62.000,345.752 61.695,345.379 61.322 C 344.787 60.729,343.401 60.622,334.374 60.472 L 324.047 60.299 323.924 52.782 C 323.780 44.024,324.100 44.638,319.581 44.461 L 316.028 44.321 315.914 40.461 L 315.800 36.600 311.900 36.486 L 308.000 36.371 308.000 33.159 C 308.000 31.393,307.814 29.599,307.586 29.174 C 307.200 28.453,174.141 27.989,168.500 28.689 M278.000 52.971 C 278.000 53.506,278.270 54.213,278.600 54.543 C 278.930 54.873,279.206 55.291,279.213 55.471 C 279.258 56.577,282.001 58.400,283.619 58.400 C 284.048 58.400,284.400 58.651,284.400 58.957 C 284.400 59.792,285.324 60.000,289.033 60.000 L 292.400 60.000 292.400 63.656 C 292.400 66.503,292.538 67.413,293.023 67.767 C 293.365 68.017,293.811 68.958,294.013 69.858 C 294.407 71.612,296.115 73.749,297.408 74.107 C 297.844 74.227,298.695 74.436,299.300 74.570 L 300.400 74.815 300.400 81.408 C 300.400 85.536,300.550 88.000,300.800 88.000 C 301.020 88.000,301.200 88.422,301.200 88.939 C 301.200 89.455,301.575 90.310,302.033 90.839 L 302.867 91.800 322.433 91.918 L 342.000 92.036 342.000 92.989 C 342.000 93.514,342.270 94.213,342.600 94.543 C 342.930 94.873,343.206 95.291,343.213 95.471 C 343.258 96.577,346.001 98.400,347.619 98.400 C 348.048 98.400,348.400 98.649,348.400 98.953 C 348.400 99.743,349.687 99.988,353.855 99.995 L 357.509 100.000 357.771 101.746 C 358.141 104.213,359.747 105.884,362.341 106.500 C 364.299 106.965,364.400 107.053,364.400 108.295 C 364.400 109.013,364.580 109.600,364.800 109.600 C 365.020 109.600,365.200 110.218,365.200 110.974 C 365.200 112.897,365.867 114.440,366.805 114.685 C 367.242 114.800,367.600 115.052,367.600 115.247 C 367.600 115.441,368.275 115.602,369.100 115.605 C 369.925 115.608,371.005 115.719,371.500 115.852 L 372.400 116.093 372.400 212.247 L 372.400 308.400 369.433 308.400 C 366.116 308.400,365.200 308.626,365.200 309.443 C 365.200 309.749,365.020 310.000,364.800 310.000 C 364.567 310.000,364.400 311.333,364.400 313.200 L 364.400 316.400 361.433 316.400 C 358.116 316.400,357.200 316.626,357.200 317.443 C 357.200 317.749,357.020 318.000,356.800 318.000 C 356.567 318.000,356.400 319.334,356.400 321.201 L 356.400 324.401 200.100 324.301 L 43.800 324.200 43.561 321.700 C 43.319 319.175,42.312 317.600,40.939 317.600 C 40.642 317.600,40.400 317.420,40.400 317.200 C 40.400 316.980,39.545 316.797,38.500 316.794 C 36.047 316.786,35.758 316.563,35.400 314.400 C 35.236 313.410,34.985 312.510,34.842 312.400 C 34.699 312.290,34.268 311.707,33.884 311.104 C 33.386 310.320,32.731 309.934,31.593 309.753 C 30.717 309.612,30.000 309.341,30.000 309.149 C 30.000 308.957,29.550 308.800,29.000 308.800 C 28.003 308.800,28.000 308.789,27.982 304.900 C 27.946 296.815,27.080 293.600,24.939 293.600 C 24.642 293.600,24.400 293.429,24.400 293.221 C 24.400 293.012,23.455 292.787,22.300 292.721 L 20.200 292.600 20.099 211.551 L 19.998 130.503 21.518 130.260 C 23.842 129.888,26.400 127.093,26.400 124.925 C 26.400 124.575,26.715 124.058,27.100 123.777 C 27.716 123.327,27.815 122.353,27.924 115.633 L 28.048 108.000 31.610 108.000 C 35.906 108.000,36.000 107.899,36.000 103.266 L 36.000 100.079 42.900 99.940 C 51.384 99.768,51.534 99.685,51.890 94.980 L 52.113 92.028 55.957 91.914 L 59.800 91.800 59.908 83.900 L 60.017 76.000 72.208 76.000 L 84.400 76.000 84.400 78.200 C 84.400 79.410,84.580 80.400,84.800 80.400 C 85.020 80.400,85.201 80.895,85.202 81.500 C 85.204 82.105,85.474 83.116,85.802 83.746 C 86.131 84.376,86.400 85.141,86.400 85.446 C 86.400 85.751,86.558 86.000,86.751 86.000 C 86.945 86.000,87.327 86.540,87.600 87.200 C 87.873 87.860,88.305 88.400,88.560 88.400 C 88.814 88.400,89.330 88.760,89.707 89.200 C 90.084 89.640,90.771 90.000,91.234 90.000 C 91.740 90.000,92.159 90.320,92.285 90.804 C 92.610 92.046,91.893 92.026,133.000 91.910 L 171.800 91.800 171.914 87.930 L 172.028 84.061 174.698 83.775 C 176.167 83.617,177.597 83.260,177.877 82.980 C 178.157 82.700,178.597 82.401,178.854 82.315 C 179.528 82.091,179.937 78.566,179.971 72.700 L 180.000 67.600 181.800 67.600 C 182.790 67.600,183.600 67.442,183.600 67.250 C 183.600 67.058,184.144 66.791,184.809 66.658 C 185.475 66.525,186.137 66.098,186.280 65.708 C 186.424 65.319,186.719 64.882,186.935 64.737 C 187.151 64.592,187.410 63.485,187.510 62.277 L 187.692 60.081 190.756 59.940 C 194.984 59.747,195.649 59.112,195.912 55.015 L 196.105 52.000 237.053 52.000 L 278.000 52.000 278.000 52.971 M234.247 92.724 C 233.173 92.792,232.036 93.107,231.719 93.424 C 231.402 93.741,230.903 94.000,230.611 94.000 C 229.900 94.000,229.200 96.110,229.200 98.252 C 229.200 100.515,230.389 100.369,211.033 100.494 C 198.371 100.576,194.629 100.713,194.500 101.100 C 194.408 101.375,193.971 101.600,193.528 101.600 C 191.332 101.600,189.866 103.351,189.387 106.548 L 189.109 108.400 185.255 108.406 C 181.228 108.413,180.708 108.548,180.283 109.700 C 180.141 110.085,179.658 110.400,179.209 110.400 C 178.760 110.400,178.084 110.760,177.707 111.200 C 177.330 111.640,176.814 112.000,176.560 112.000 C 176.305 112.000,175.873 112.540,175.600 113.200 C 175.327 113.860,174.957 114.400,174.779 114.400 C 174.601 114.400,174.398 114.805,174.328 115.300 C 174.209 116.137,173.941 116.218,170.480 116.462 C 166.435 116.746,165.200 117.448,165.200 119.461 C 165.200 119.978,165.020 120.400,164.800 120.400 C 164.580 120.400,164.400 121.300,164.400 122.400 L 164.400 124.400 161.416 124.400 C 159.224 124.400,158.295 124.563,157.916 125.014 C 157.632 125.352,157.175 125.879,156.900 126.185 C 156.602 126.518,156.400 127.861,156.400 129.513 L 156.400 132.284 153.565 132.522 C 150.467 132.781,149.200 133.634,149.200 135.461 C 149.200 135.978,149.020 136.400,148.800 136.400 C 148.574 136.400,148.400 137.531,148.400 138.992 C 148.400 141.494,148.362 141.593,147.300 141.830 C 146.695 141.964,145.844 142.173,145.408 142.293 C 144.115 142.651,142.407 144.788,142.013 146.542 C 141.811 147.442,141.365 148.383,141.023 148.633 C 140.534 148.990,140.400 149.916,140.400 152.944 L 140.400 156.800 139.000 156.800 C 138.230 156.800,137.600 156.980,137.600 157.200 C 137.600 157.420,137.321 157.600,136.980 157.600 C 134.785 157.600,133.200 160.023,133.200 163.377 C 133.200 163.940,133.022 164.400,132.806 164.400 C 132.557 164.400,132.372 169.149,132.306 177.271 L 132.200 190.143 131.024 190.457 C 130.377 190.630,129.693 191.048,129.504 191.386 C 129.315 191.724,128.911 192.000,128.607 192.000 C 128.303 192.000,127.940 192.359,127.801 192.798 C 127.662 193.236,127.334 193.821,127.073 194.098 C 126.396 194.815,125.196 198.400,125.198 199.700 C 125.199 200.305,125.020 200.800,124.800 200.800 C 124.552 200.800,124.400 203.000,124.400 206.600 C 124.400 210.200,124.552 212.400,124.800 212.400 C 125.020 212.400,125.200 213.183,125.200 214.140 C 125.200 216.289,125.899 218.400,126.611 218.400 C 126.903 218.400,127.402 218.659,127.719 218.976 C 128.036 219.293,129.173 219.608,130.247 219.676 L 132.200 219.800 132.305 234.722 C 132.383 245.866,132.535 249.794,132.905 250.236 C 134.342 251.954,134.461 252.000,137.429 252.000 L 140.400 252.000 140.400 258.829 C 140.400 263.727,140.541 265.815,140.900 266.215 C 141.175 266.521,141.632 267.048,141.916 267.386 C 142.295 267.837,143.224 268.000,145.416 268.000 L 148.400 268.000 148.400 271.792 C 148.400 276.181,148.117 275.927,153.200 276.099 L 156.200 276.200 156.314 280.100 C 156.405 283.181,156.550 284.000,157.007 284.000 C 157.325 284.000,157.695 284.495,157.830 285.100 C 158.313 287.274,158.457 287.576,159.568 288.766 C 160.235 289.479,161.363 290.122,162.330 290.340 C 163.229 290.542,164.255 290.998,164.611 291.353 C 165.109 291.852,166.073 292.000,168.829 292.000 L 172.400 292.000 172.400 295.195 C 172.400 299.589,172.781 300.000,176.856 300.000 C 180.960 300.000,181.200 300.120,181.200 302.183 C 181.200 304.294,181.905 306.400,182.611 306.400 C 182.903 306.400,183.431 306.689,183.784 307.041 C 184.312 307.569,185.751 307.716,191.913 307.870 C 199.066 308.050,201.183 308.390,201.213 309.368 C 201.231 309.935,202.435 311.285,203.420 311.840 C 203.849 312.083,204.257 312.758,204.327 313.340 C 204.396 313.923,204.621 314.400,204.827 314.400 C 205.032 314.400,205.200 314.662,205.200 314.982 C 205.200 315.996,207.080 316.046,240.229 315.922 C 270.326 315.809,272.707 315.750,273.349 315.109 C 273.729 314.729,274.311 314.266,274.642 314.081 C 275.015 313.872,275.405 312.660,275.667 310.896 L 276.090 308.048 283.612 307.924 C 292.373 307.780,291.762 308.096,291.938 303.607 L 292.077 300.079 298.905 299.940 C 303.910 299.837,305.778 299.666,305.900 299.300 C 305.992 299.025,306.302 298.800,306.591 298.800 C 307.317 298.800,307.621 297.840,307.887 294.700 L 308.116 292.000 310.758 291.995 C 315.470 291.985,316.000 291.458,316.000 286.781 L 316.000 284.000 318.700 283.995 C 323.466 283.985,324.000 283.465,324.000 278.839 L 324.000 276.115 326.780 275.856 C 328.996 275.651,329.786 275.389,330.671 274.569 L 331.782 273.540 331.936 266.808 L 332.091 260.076 335.612 259.938 C 340.095 259.762,339.767 260.394,340.000 251.468 L 340.200 243.800 342.300 243.679 C 343.455 243.613,344.400 243.388,344.400 243.179 C 344.400 242.971,344.642 242.800,344.939 242.800 C 347.844 242.800,347.961 241.350,347.982 205.360 C 348.003 169.407,348.515 172.400,342.350 172.400 L 340.000 172.400 340.000 164.933 C 340.000 158.184,339.495 152.528,338.846 152.000 C 338.711 151.890,338.404 151.440,338.165 151.000 C 337.910 150.532,337.038 150.044,336.065 149.823 C 335.149 149.616,334.400 149.301,334.400 149.123 C 334.400 148.945,333.860 148.800,333.200 148.800 L 332.000 148.800 332.000 145.374 C 332.000 140.476,331.933 140.400,327.600 140.400 L 324.029 140.400 323.914 136.500 L 323.800 132.600 322.701 132.474 C 321.925 132.384,321.530 132.061,321.358 131.374 C 321.223 130.838,320.982 130.400,320.821 130.400 C 320.660 130.400,320.319 129.940,320.063 129.379 C 319.807 128.817,319.058 128.170,318.399 127.940 C 317.740 127.710,317.200 127.359,317.200 127.161 C 317.200 126.962,316.942 126.800,316.627 126.800 C 316.298 126.800,315.999 126.330,315.927 125.700 L 315.800 124.600 311.900 124.486 L 308.000 124.371 308.000 121.159 C 308.000 116.504,307.905 116.400,303.639 116.400 L 300.105 116.400 299.912 113.385 C 299.611 108.701,299.482 108.630,290.911 108.474 L 284.000 108.348 284.000 105.834 C 284.000 103.849,283.540 101.345,283.061 100.721 C 283.027 100.677,275.890 100.542,267.200 100.421 L 251.400 100.200 251.275 98.900 C 251.206 98.185,250.981 97.600,250.775 97.600 C 250.569 97.600,250.400 97.324,250.400 96.986 C 250.400 95.206,248.095 93.600,245.540 93.600 C 244.913 93.600,244.400 93.432,244.400 93.226 C 244.400 92.838,237.678 92.506,234.247 92.724 M50.400 101.200 C 50.400 101.420,50.023 101.600,49.562 101.600 C 47.331 101.600,45.869 103.333,45.387 106.548 L 45.109 108.400 41.443 108.400 C 36.481 108.400,36.458 108.429,36.312 115.048 C 36.212 119.588,36.119 120.160,35.420 120.557 C 34.415 121.127,33.230 122.470,33.213 123.057 C 33.206 123.309,32.885 123.637,32.500 123.786 C 31.833 124.044,31.833 124.082,32.500 124.573 C 32.885 124.856,33.206 125.248,33.213 125.444 C 33.232 125.946,34.493 127.317,35.420 127.843 C 36.150 128.258,36.207 128.838,36.308 136.969 C 36.384 143.115,36.559 145.822,36.908 146.239 C 38.488 148.129,37.357 148.031,56.150 147.912 L 73.819 147.800 74.810 146.877 L 75.800 145.954 75.800 127.611 C 75.800 117.522,75.650 109.117,75.467 108.933 C 75.284 108.750,73.408 108.537,71.298 108.459 C 67.096 108.305,66.656 108.089,66.262 105.989 C 65.737 103.192,62.969 101.630,58.500 101.610 C 57.345 101.604,56.400 101.420,56.400 101.200 C 56.400 100.969,55.133 100.800,53.400 100.800 C 51.667 100.800,50.400 100.969,50.400 101.200 M245.230 125.700 C 245.281 128.545,246.065 130.133,247.634 130.570 C 248.385 130.780,249.124 131.135,249.276 131.359 C 249.445 131.610,252.998 131.819,258.476 131.901 C 269.701 132.068,269.200 131.963,269.200 134.148 C 269.200 136.290,269.900 138.400,270.611 138.400 C 270.903 138.400,271.420 138.677,271.758 139.015 C 272.232 139.489,273.754 139.687,278.387 139.878 L 284.400 140.124 284.400 143.262 C 284.400 145.087,284.567 146.400,284.800 146.400 C 285.020 146.400,285.200 146.651,285.200 146.957 C 285.200 147.774,286.116 148.000,289.433 148.000 L 292.400 148.000 292.400 150.817 C 292.400 155.013,293.357 156.000,297.429 156.000 L 300.400 156.000 300.400 159.195 C 300.400 163.640,300.751 164.000,305.089 164.000 L 308.400 164.000 308.400 171.000 C 308.400 175.400,308.549 178.000,308.800 178.000 C 309.020 178.000,309.200 178.357,309.200 178.792 C 309.200 179.727,309.967 179.955,313.600 180.098 L 316.200 180.200 316.303 204.500 L 316.406 228.800 315.003 228.800 C 314.231 228.800,313.600 228.980,313.600 229.200 C 313.600 229.420,313.321 229.600,312.980 229.600 C 310.785 229.600,309.200 232.023,309.200 235.377 C 309.200 235.940,309.020 236.400,308.800 236.400 C 308.559 236.400,308.400 238.067,308.400 240.600 L 308.400 244.800 306.600 244.800 C 305.610 244.800,304.800 244.954,304.800 245.142 C 304.800 245.330,304.230 245.648,303.534 245.847 C 302.073 246.266,301.280 247.936,301.230 250.700 C 301.214 251.635,301.027 252.400,300.814 252.400 C 300.601 252.400,300.378 254.144,300.314 256.300 L 300.200 260.200 297.200 260.301 C 292.175 260.471,292.448 260.236,292.315 264.504 L 292.200 268.200 286.835 268.482 C 283.884 268.637,281.364 268.918,281.235 269.107 C 281.106 269.295,280.385 269.620,279.634 269.830 C 278.073 270.265,277.282 271.853,277.230 274.657 L 277.200 276.314 272.532 276.462 C 269.289 276.565,267.813 276.761,267.698 277.105 C 267.608 277.377,267.102 277.600,266.575 277.600 C 263.704 277.600,261.600 279.586,261.600 282.296 C 261.600 284.538,263.240 284.400,236.557 284.400 L 212.000 284.400 212.000 281.860 C 212.000 276.462,211.890 276.400,202.390 276.400 L 196.080 276.400 195.940 272.833 C 195.769 268.478,195.921 268.631,191.617 268.462 L 188.100 268.324 187.909 265.347 C 187.652 261.338,186.963 260.664,182.913 260.460 L 180.000 260.313 180.000 257.575 C 180.000 252.934,179.468 252.415,174.700 252.405 L 172.000 252.400 172.000 248.933 C 172.000 245.543,171.335 240.398,170.846 240.000 C 170.711 239.890,170.404 239.440,170.165 239.000 C 169.910 238.532,169.038 238.044,168.065 237.823 C 167.149 237.616,166.400 237.301,166.400 237.123 C 166.400 236.945,165.860 236.800,165.200 236.800 L 164.000 236.800 163.998 229.700 C 163.996 223.041,163.599 219.600,162.832 219.600 C 162.651 219.600,162.393 218.916,162.259 218.081 C 161.944 216.112,159.858 214.207,157.623 213.850 L 156.000 213.591 156.000 204.853 L 156.000 196.116 158.895 195.873 C 160.487 195.740,161.852 195.444,161.928 195.215 C 162.004 194.987,162.302 194.800,162.591 194.800 C 163.607 194.800,163.772 193.295,163.914 182.739 L 164.057 172.077 167.596 171.939 C 171.939 171.768,171.770 171.947,171.939 167.367 C 172.074 163.694,172.101 163.600,173.039 163.600 C 173.567 163.600,174.000 163.443,174.000 163.251 C 174.000 163.059,174.717 162.788,175.593 162.647 C 176.731 162.466,177.386 162.080,177.884 161.296 C 178.268 160.693,178.691 160.110,178.824 160.000 C 179.171 159.713,180.000 155.307,180.000 153.747 C 180.000 152.821,180.248 152.296,180.830 151.984 C 181.911 151.405,183.293 150.025,183.810 149.007 C 184.148 148.342,184.817 148.139,187.610 147.853 C 189.475 147.662,191.090 147.374,191.200 147.213 C 191.310 147.052,191.927 146.747,192.571 146.536 C 193.216 146.325,193.936 145.803,194.171 145.376 C 194.407 144.949,194.740 144.496,194.911 144.370 C 195.081 144.243,195.329 143.225,195.462 142.107 L 195.703 140.074 199.419 139.937 C 203.941 139.770,203.769 139.936,203.939 135.595 L 204.078 132.055 215.349 131.928 C 226.221 131.805,226.653 131.770,227.538 130.944 C 228.042 130.474,228.981 129.984,229.624 129.855 C 231.041 129.572,233.507 127.130,233.857 125.664 C 233.996 125.079,234.186 124.465,234.279 124.300 C 234.371 124.135,236.867 124.000,239.824 124.000 L 245.200 124.000 245.230 125.700 " stroke="none" fill="#000000" fill-rule="evenodd"></path></g></svg>